<svg width="783" height="783" viewBox="0 0 783 783" fill="none" xmlns="http://www.w3.org/2000/svg">
<path d="M391.234 782.468L370.752 781.946L350.336 780.315L330.051 777.641L309.895 773.923L290.001 769.161L270.367 763.356L251.06 756.507L232.144 748.68L213.62 739.874L195.617 730.09L178.136 719.393L161.242 707.782L145 695.324L129.411 682.017L114.539 667.928L100.45 653.057L87.1438 637.467L74.6853 621.226L63.0749 604.332L52.3776 586.851L42.5935 568.848L33.7878 550.323L25.9605 531.407L19.1116 512.1L13.3064 492.467L8.54479 472.572L4.82683 452.417L2.1525 432.131L0.521819 411.715L0 391.234L0.521819 370.752L2.1525 350.336L4.82683 330.051L8.54479 309.895L13.3064 290.001L19.1116 270.367L25.9605 251.06L33.7878 232.144L42.5935 213.62L52.3776 195.617L63.0749 178.136L74.6853 161.242L87.1438 145L100.45 129.411L114.539 114.539L129.411 100.45L145 87.1438L161.242 74.6853L178.136 63.0749L195.617 52.3776L213.62 42.5935L232.144 33.7878L251.06 25.9605L270.367 19.1116L290.001 13.3064L309.895 8.54479L330.051 4.82683L350.336 2.1525L370.752 0.521819L391.234 0L411.715 0.521819L432.131 2.1525L452.417 4.82683L472.572 8.54479L492.467 13.3064L512.1 19.1116L531.407 25.9605L550.323 33.7878L568.783 42.5935L586.785 52.3776L604.266 63.0749L621.16 74.6853L637.402 87.1438L652.991 100.45L667.863 114.539L681.952 129.411L695.259 145L707.717 161.242L719.327 178.136L730.025 195.617L739.809 213.62L748.615 232.079L756.442 250.995L763.291 270.302L769.096 289.936L773.858 309.83L777.575 329.985L780.25 350.271L781.881 370.687L782.402 391.364L781.881 411.65L780.25 432.066L777.575 452.352L773.858 472.507L769.096 492.401L763.291 512.035L756.442 531.342L748.615 550.258L739.809 568.783L730.025 586.786L719.327 604.266L707.717 621.16L695.259 637.402L681.952 652.991L667.863 667.863L652.991 681.952L637.402 695.259L621.16 707.717L604.266 719.328L586.785 730.025L568.783 739.809L550.323 748.615L531.407 756.442L512.1 763.291L492.467 769.096L472.572 773.858L452.417 777.576L432.066 780.25L411.65 781.881L391.169 782.402L391.234 782.468ZM391.038 14.0239L371.274 14.5457L351.576 16.1112L332.007 18.7203L312.57 22.3078L293.393 26.9389L274.477 32.5485L255.887 39.1364L237.623 46.7028L219.816 55.1824L202.466 64.5751L185.637 74.881L169.395 86.1001L153.741 98.102L138.739 110.952L124.454 124.519L110.887 138.869L98.0367 153.871L86.0349 169.526L74.881 185.768L64.5751 202.596L55.1824 219.947L46.7028 237.754L39.1364 256.017L32.5485 274.607L26.9389 293.523L22.3078 312.7L18.7203 332.138L16.1764 351.706L14.6109 371.405L14.0891 391.169L14.6109 410.932L16.1764 430.631L18.7855 450.199L22.373 469.637L27.0041 488.814L32.6137 507.73L39.2016 526.32L46.768 544.583L55.2476 562.39L64.6403 579.741L74.9463 596.57L86.1654 612.811L98.1672 628.466L111.017 643.468L124.584 657.753L138.934 671.32L153.937 684.17L169.591 696.172L185.833 707.326L202.661 717.632L220.012 727.024L237.819 735.504L256.083 743.07L274.672 749.658L293.588 755.268L312.765 759.899L332.203 763.487L351.771 766.03L371.47 767.596L391.234 768.118L410.998 767.596L430.696 766.03L450.265 763.421L469.702 759.834L488.879 755.203L507.795 749.593L526.385 743.005L544.649 735.439L562.456 726.959L579.806 717.566L596.635 707.26L612.876 696.107L628.531 684.105L643.533 671.255L657.883 657.688L671.451 643.338L684.235 628.335L696.237 612.681L707.391 596.439L717.697 579.611L727.09 562.26L735.569 544.453L743.135 526.189L749.723 507.599L755.333 488.684L759.964 469.507L763.552 450.069L766.161 430.501L767.726 410.802L768.248 391.169L767.726 371.339L766.161 351.641L763.552 332.073L759.964 312.635L755.333 293.458L749.723 274.542L743.135 255.952L735.569 237.689L727.09 219.882L717.697 202.531L707.391 185.702L696.237 169.461L684.235 153.806L671.385 138.804L657.818 124.519L643.468 110.952L628.466 98.1672L612.811 86.1654L596.57 75.0115L579.741 64.7056L562.39 55.3128L544.583 46.8333L526.32 39.2669L507.73 32.6789L488.814 27.0694L469.637 22.4382L450.199 18.8507L430.631 16.3068L410.932 14.7414L391.169 14.2196L391.038 14.0239Z" fill="black"/>
<path d="M398.278 775.358H384.059V718.284L378.906 718.154L366.578 717.306L354.38 715.871L342.378 713.979L330.638 711.5L319.223 708.565L308.199 705.173L297.567 701.39L287.392 697.281L277.673 692.845L268.411 688.149L259.67 683.192L251.452 678.039L243.689 672.755L229.666 661.928L217.598 650.904L207.358 639.881L198.813 629.184L191.703 618.682L185.963 608.506L181.463 598.788L178.005 589.525L175.527 580.72L173.896 572.305L173.309 567.087L165.612 559.977L154.067 547.845L148.523 541.257L143.109 534.343L137.891 527.103L132.868 519.536L128.107 511.644L123.606 503.425L119.366 494.946L115.387 486.205L111.734 477.204L108.408 467.941L105.473 458.418L102.929 448.699L100.776 438.85L99.0151 428.805L97.6453 418.695L96.7322 408.454L96.2103 398.279H6.91406V384.059H96.0147L96.2103 377.601L96.9931 367.361L98.2324 357.185L99.8631 347.14L101.885 337.226L104.299 327.442L107.103 317.853L110.299 308.46L113.822 299.329L117.67 290.458L121.845 281.848L126.28 273.564L130.977 265.541L135.869 257.844L141.022 250.473L146.37 243.429L157.524 230.383L169.2 218.642L173.179 215.12L173.7 210.489L175.331 202.075L177.81 193.204L181.202 183.876L185.702 174.092L191.377 163.917L198.422 153.35L206.966 142.522L217.272 131.433L229.339 120.41L236.123 114.931L243.298 109.582L251.06 104.299L259.279 99.211L268.084 94.2538L277.282 89.5574L287.066 85.1219L297.241 81.0126L307.938 77.2294L318.962 73.8376L330.377 70.9024L342.118 68.4237L354.119 66.4669L366.317 65.0319L384.124 64.0535V6.91431H398.344V63.9883L403.496 64.1187L415.824 64.9667L428.022 66.4017L440.024 68.2933L451.765 70.7719L463.18 73.7071L474.203 77.099L484.835 80.8822L495.011 84.9915L504.795 89.4269L514.057 94.1233L522.797 99.0806L531.016 104.234L538.778 109.517L546.018 114.931L552.802 120.41L564.869 131.433L575.11 142.457L583.655 153.154L590.764 163.656L596.504 173.831L601.005 183.55L604.462 192.812L606.941 201.618L608.571 210.032L609.158 215.251L618.812 224.317L630.292 236.71L635.836 243.429L641.185 250.473L646.338 257.844L651.295 265.541L655.992 273.564L660.427 281.848L664.602 290.458L668.45 299.329L671.972 308.46L675.169 317.853L677.973 327.442L680.387 337.226L682.409 347.14L684.039 357.185L685.279 367.361L686.322 384.385H775.423V398.605H686.388L685.931 408.454L685.018 418.695L683.648 428.87L681.887 438.915L679.734 448.765L677.191 458.483L674.255 468.007L670.994 477.269L667.341 486.336L663.428 495.141L659.188 503.621L654.687 511.839L649.926 519.732L644.903 527.298L639.685 534.539L634.271 541.453L622.987 554.303L609.224 567.544L608.702 572.175L607.136 580.589L604.658 589.46L601.266 598.788L596.765 608.572L591.09 618.747L584.046 629.314L575.501 640.142L565.195 651.23L553.128 662.254L546.344 667.733L539.169 673.082L531.407 678.365L523.189 683.453L514.383 688.41L505.186 693.106L495.402 697.542L485.226 701.651L474.529 705.434L463.506 708.826L452.091 711.761L440.415 714.24L428.413 716.197L416.216 717.632L398.409 718.61V775.684L398.278 775.358ZM190.138 580.654L191.377 585.155L194.443 593.374L198.487 602.049L203.64 611.246L210.097 620.834L217.99 630.749L227.383 640.794L238.602 651.035L251.647 661.145L258.887 666.102L266.649 670.929L274.868 675.56L283.543 679.996L292.74 684.17L302.394 688.084L312.439 691.606L322.875 694.802L333.703 697.542L344.792 699.89L356.141 701.716L367.687 703.086L383.863 703.999V654.166L370.948 652.992L357.968 650.578L345.64 647.056L334.16 642.555L323.658 637.272L314.331 631.271L306.177 624.813L298.35 616.921L291.24 616.79L280.152 615.877L268.737 614.246L257.061 611.768L245.124 608.376L232.992 604.071L220.664 598.722L208.271 592.265L195.747 584.568L190.073 580.654H190.138ZM398.278 654.231V704.065L403.105 703.934L414.781 703.151L426.326 701.782L437.741 699.955L448.83 697.607L459.657 694.802L470.094 691.606L480.204 688.019L489.792 684.105L498.989 679.93L507.665 675.495L515.949 670.864L523.645 666.037L530.951 661.08L543.996 650.969L555.215 640.729L564.673 630.553L572.631 620.508L579.023 610.92L584.176 601.723L588.22 592.982L591.221 584.764L592.33 580.785L580.654 588.547L574.457 592.2L562.195 598.592L549.867 604.006L537.669 608.376L525.733 611.768L514.057 614.246L502.642 615.942L491.553 616.856L483.987 617.051L480.008 621.291L472.507 628.009L463.767 634.271L453.852 639.946L442.829 644.903L430.892 648.947L418.173 651.948L404.932 653.774L398.344 654.231H398.278ZM398.278 590.178V639.946L409.563 638.902L421.238 636.685L432.262 633.489L442.503 629.444L451.7 624.748L459.853 619.53L466.832 613.986L472.638 608.18L477.269 602.375L480.791 596.635L483.335 591.026L484.9 585.677L485.683 580.589V578.111L485.096 571.196L484.052 567.413L476.616 571.196L467.68 575.175L458.548 578.698L449.286 581.763L439.893 584.372L430.37 586.525L420.717 588.221L410.998 589.395L398.409 590.178H398.278ZM298.415 567.413L296.915 573.936L296.654 578.632L297.111 583.59L298.35 588.808L300.437 594.287L303.503 599.896L307.612 605.636L312.83 611.442L319.223 617.116L326.789 622.53L335.464 627.488L345.183 631.858L355.881 635.445L367.295 638.12L379.232 639.75L384.124 640.077V590.308H381.645L371.861 589.525L362.142 588.351L352.489 586.721L342.966 584.568L333.508 581.959L324.245 578.893L315.113 575.371L306.177 571.392L298.415 567.478V567.413ZM496.446 560.238L498.207 565.261L499.511 571.588L499.968 578.306L499.446 585.286L497.881 592.461L495.206 599.701L493.902 602.31L501.011 601.723L511.513 600.157L522.341 597.874L533.364 594.743L544.649 590.699L556.063 585.677L567.543 579.676L578.958 572.631L590.438 564.348L595.526 560.238V556.52L595.265 550.65L594.482 545.171L593.308 540.018L591.808 535.191L590.047 530.69L588.025 526.45L583.263 518.754L577.784 511.905L571.587 505.839L564.869 500.425L559.977 497.033L557.042 501.729L551.432 509.752L545.431 517.449L539.039 524.885L532.321 531.995L525.276 538.713L517.905 545.105L510.209 551.106L496.641 560.303L496.446 560.238ZM186.942 560.238L197.965 568.783L209.51 576.48L215.316 579.872L226.926 585.938L238.341 590.895L249.625 594.874L260.649 598.005L271.411 600.288L281.913 601.788L288.566 602.31L285.957 596.505L283.739 589.33L282.63 582.285L282.435 578.828L282.826 572.11L284.065 565.717L285.957 560.173L280.673 556.846L272.65 551.237L264.954 545.236L257.518 538.844L250.408 532.125L243.624 525.015L237.232 517.645L231.231 509.948L222.425 496.968L217.272 500.555L210.554 506.034L204.357 512.166L198.878 519.08L194.182 526.842L192.16 531.082L190.399 535.582L188.964 540.409L187.855 545.562L187.137 551.106L186.811 557.042V560.173L186.942 560.238ZM305.59 555.085L312.309 558.477L320.593 562.13L329.072 565.391L337.682 568.196L346.423 570.609L355.293 572.566L364.23 574.132L373.231 575.24L384.059 575.958V526.45L363.447 528.407L345.901 532.19L332.333 536.822L320.201 542.888L311.917 548.758L305.59 555.02V555.085ZM398.344 526.45V575.958H400.496L409.563 575.24L418.564 574.132L427.5 572.566L436.371 570.544L445.112 568.131L453.722 565.261L462.201 561.999L470.485 558.281L476.877 555.085L472.181 550.258L464.223 544.192L454.961 539.039L441.915 533.886L424.761 529.516L403.496 526.842L398.278 526.581L398.344 526.45ZM457.7 524.624L466.702 529.06L477.008 535.778L483.922 541.779L489.336 547.91L494.163 544.845L501.599 539.626L508.774 534.017L515.622 528.081L522.21 521.819L528.472 515.231L534.408 508.382L540.017 501.207L547.714 489.923L538.256 485.488L521.428 479.226L499.381 473.16L482.683 469.768L478.899 481.117L473.746 494.163L467.745 507.013L460.962 519.602L457.831 524.624H457.7ZM234.884 489.858L237.558 494.032L242.776 501.468L248.386 508.643L254.321 515.492L260.583 522.08L267.171 528.342L274.085 534.278L281.26 539.822L293.197 547.91L298.35 542.04L305.264 535.974L312.896 530.755L324.767 524.624L321.832 519.993L314.983 507.404L308.982 494.554L303.764 481.509L299.85 469.768L274.151 475.443L256.735 480.726L240.102 487.379L234.884 489.923V489.858ZM110.299 398.213L110.756 407.41L111.669 417.064L112.974 426.587L114.67 436.045L116.692 445.308L119.105 454.439L121.845 463.376L124.976 472.116L128.367 480.596L132.085 488.814L136.064 496.772L140.304 504.469L144.805 511.839L149.501 518.949L159.416 532.19L169.983 544.192L173.309 547.584L173.896 543.083L175.266 536.822L177.027 530.951L179.18 525.407L181.658 520.254L184.398 515.427L187.398 510.861L193.986 502.642L201.226 495.402L208.988 489.075L215.446 484.574L211.271 476.356L207.293 467.42L203.77 458.288L200.705 449.026L198.095 439.633L195.943 430.11L194.247 420.456L193.073 410.737L192.29 398.148H110.43L110.299 398.213ZM567.087 484.64L573.283 488.945L580.98 495.206L588.22 502.382L594.808 510.535L597.809 515.036L600.548 519.862L603.027 525.015L605.18 530.495L607.006 536.365L608.376 542.627L609.093 547.649L617.964 538.257L628.205 525.602L633.097 518.819L637.793 511.709L642.294 504.273L646.534 496.576L650.513 488.619L654.231 480.4L657.622 471.92L660.688 463.18L663.428 454.244L665.841 445.112L667.863 435.784L669.494 426.326L670.798 416.803L671.646 407.15L672.103 398.279H590.242V400.757L589.46 410.541L588.286 420.26L586.655 429.914L584.502 439.437L581.893 448.83L578.828 458.092L575.305 467.224L571.327 476.16L567.022 484.705L567.087 484.64ZM398.344 512.166L417.781 513.796L437.089 517.514L444.068 519.471L448.569 512.296L454.961 500.49L460.57 488.423L465.463 476.095L468.398 467.289L434.219 463.636L398.409 462.136V512.035L398.344 512.166ZM314.07 467.42L317.135 476.551L322.028 488.879L327.702 500.947L334.095 512.753L338.334 519.536L351.51 516.079L371.078 513.014L383.994 512.166V462.267L343.357 464.093L313.939 467.354L314.07 467.42ZM486.401 455.94L507.143 460.375L525.667 465.658L539.235 470.551L554.694 477.595L558.477 470.094L562.129 461.81L565.391 453.331L568.261 444.72L570.674 435.98L572.631 427.109L574.197 418.173L575.305 409.172L576.023 398.344H494.228V400.17L493.445 413.868L491.945 427.5L489.727 441.068L486.401 456.07V455.94ZM206.379 398.213V400.366L207.097 409.432L208.206 418.434L209.771 427.37L211.793 436.241L214.207 444.981L217.077 453.591L220.338 462.071L224.056 470.355L227.709 477.53L238.536 472.442L252.039 467.224L270.498 461.614L296.002 455.94L295.676 454.831L292.74 441.329L290.523 427.761L289.022 414.129L288.174 398.279H206.379V398.213ZM302.394 398.213V399.909L303.177 412.89L304.612 425.805L306.699 438.654L310.091 453.591L342.313 449.939L384.059 448.047V398.213H302.394V398.213ZM398.344 448.047L440.024 449.939L472.311 453.591L473.029 451.048L475.768 438.263L477.856 425.413L479.291 412.498L480.073 398.213H398.344V448.047V448.047ZM590.242 383.994H672.103L671.907 378.058L671.124 368.404L669.95 358.816L668.385 349.358L666.493 340.031L664.21 330.833L661.536 321.832L658.536 313.026L655.209 304.482L651.556 296.133L647.643 288.044L643.468 280.282L639.033 272.781L634.401 265.606L624.552 252.104L614.116 239.907L608.963 234.558L608.376 239.124L607.006 245.386L605.245 251.256L603.092 256.8L600.614 261.953L597.874 266.78L594.874 271.346L588.286 279.565L581.045 286.74L573.283 293.067L566.826 297.568L571 305.786L574.979 314.722L578.502 323.854L581.567 333.116L584.176 342.574L586.329 352.098L588.025 361.751L589.199 371.47L589.982 384.059L590.242 383.994ZM494.228 383.994H576.023V381.841L575.305 372.775L574.197 363.773L572.631 354.837L570.609 345.966L568.196 337.226L565.326 328.616L562.064 320.136L558.346 311.852L554.694 304.677L543.801 309.765L530.299 314.983L511.839 320.593L486.27 326.268L487.705 331.877L490.379 345.379L492.336 359.012L493.641 372.644L494.097 383.994H494.228ZM398.344 383.994H480.008L479.552 373.623L478.312 360.708L476.421 347.793L473.877 335.008L472.246 328.616L440.089 332.268L398.344 334.16V383.994V383.994ZM302.459 383.994H384.124V334.16L342.444 332.268L310.221 328.616L308.525 335.399L305.982 348.184L304.155 361.034L302.981 373.949L302.59 383.929L302.459 383.994ZM206.445 383.994H288.24L288.696 373.036L289.936 359.403L291.892 345.771L296.067 326.268L275.259 321.832L256.735 316.549L243.168 311.657L227.709 304.612L223.926 312.113L220.273 320.397L217.011 328.877L214.207 337.487L211.793 346.227L209.836 355.098L208.271 364.034L207.162 373.036L206.445 383.863V383.994ZM110.365 383.994H192.225V381.515L193.008 371.731L194.182 362.012L195.813 352.359L197.965 342.835L200.574 333.377L203.64 324.115L207.162 314.983L211.141 306.047L215.446 297.502L209.249 293.197L201.553 286.935L194.312 279.76L187.724 271.607L184.724 267.106L181.984 262.28L179.506 257.127L177.353 251.647L175.527 245.777L174.157 239.515L173.44 234.427L162.873 245.907L157.72 252.169L147.936 265.671L143.305 272.846L138.934 280.347L134.76 288.11L130.846 296.198L127.259 304.547L123.932 313.157L120.932 321.963L118.257 330.964L115.974 340.161L114.083 349.489L112.582 358.946L111.474 368.535L110.56 383.863L110.365 383.994ZM398.344 270.042V319.941L438.98 318.114L468.463 314.853L465.397 305.786L462.201 297.568L458.679 289.414L454.83 281.391L450.656 273.499L444.198 262.736L430.957 266.193L411.389 269.259L398.474 270.107L398.344 270.042ZM314.07 314.788L348.314 318.44L384.124 319.941V270.042L364.686 268.411L345.379 264.693L338.334 262.671L336.247 265.932L331.681 273.694L327.507 281.587L323.658 289.61L320.136 297.763L316.94 305.982L313.939 314.788H314.07ZM457.831 257.583L458.222 258.17L463.049 266.454L467.485 274.868L471.594 283.413L475.312 292.088L478.704 300.829L482.617 312.505L508.317 306.83L525.733 301.546L542.366 294.893L547.584 292.349L544.909 288.175L539.691 280.739L534.082 273.564L528.146 266.715L521.884 260.127L515.296 253.865L508.382 247.929L501.207 242.32L489.271 234.232L484.118 240.102L477.203 246.168L469.507 251.387L457.7 257.453L457.831 257.583ZM234.884 292.349L244.342 296.785L261.17 303.047L283.217 309.113L299.85 312.505L300.633 309.895L303.633 301.09L307.025 292.349L310.743 283.739L314.787 275.195L319.223 266.78L324.637 257.648L315.7 253.278L307.808 248.386L300.633 242.646L293.001 234.427L288.24 237.493L280.804 242.711L273.629 248.321L266.78 254.257L260.192 260.518L253.93 267.106L247.994 274.02L242.45 281.195L234.753 292.48L234.884 292.349ZM187.007 222.099V225.752L187.268 231.623L188.05 237.102L189.225 242.255L190.725 247.082L192.486 251.582L196.791 259.736L201.944 266.976L207.814 273.433L214.272 279.173L222.621 285.24L225.556 280.543L231.166 272.52L237.167 264.823L243.559 257.387L250.277 250.278L257.387 243.494L264.758 237.102L272.455 231.101L286.022 221.904L284.261 216.881L282.956 210.554L282.5 203.836L283.022 196.856L284.587 189.681L287.261 182.441L288.566 179.767H288.37L274.542 181.398L260.192 184.268L252.821 186.29L245.385 188.638L237.884 191.443L230.253 194.639L222.621 198.291L214.924 202.401L207.227 207.032L199.531 212.185L186.876 221.969L187.007 222.099ZM496.511 222.099L501.794 225.426L509.817 231.036L517.514 237.036L524.95 243.429L532.06 250.147L538.843 257.257L545.236 264.628L551.237 272.325L560.042 285.305L565.195 281.717L571.914 276.238L578.11 270.107L583.589 263.193L588.286 255.431L590.308 251.191L592.069 246.69L593.504 241.863L594.613 236.71L595.33 231.166L595.656 225.23L595.526 222.165L590.177 217.794L582.546 212.185L574.849 207.097L567.152 202.466L559.455 198.357L551.824 194.704L544.192 191.508L536.626 188.768L529.19 186.42L514.644 182.833L500.555 180.615L493.836 180.028L496.511 185.898L498.728 193.073L499.837 200.118L500.033 203.575L499.642 210.293L498.402 216.686L496.511 222.23V222.099ZM398.344 206.38V255.887L419.021 253.93L436.567 250.147L450.134 245.516L462.266 239.45L470.55 233.579L476.877 227.318L470.159 223.926L461.875 220.273L453.395 217.012L444.785 214.142L436.045 211.728L427.174 209.771L418.238 208.206L409.237 207.097L398.409 206.38H398.344ZM305.59 227.252L310.287 232.079L318.244 238.145L327.507 243.298L340.552 248.451L357.707 252.822L378.971 255.496L384.189 255.757V206.249H382.037L372.97 206.967L363.969 208.076L355.033 209.641L346.162 211.663L337.421 214.076L328.811 216.946L320.332 220.208L312.048 223.926L305.655 227.122L305.59 227.252ZM398.344 192.16H400.822L410.541 192.943L420.26 194.117L429.914 195.748L439.437 197.9L448.895 200.509L458.157 203.575L467.289 207.097L476.225 211.076L483.987 214.99L485.487 208.467L485.748 203.771L485.292 198.813L484.052 193.595L481.965 188.116L478.899 182.441L474.79 176.701L469.572 170.961L463.18 165.286L455.613 159.938L446.938 154.98L437.219 150.61L426.522 147.023L415.107 144.348L403.17 142.718L398.213 142.392V192.16H398.344ZM384.124 142.392L372.84 143.435L361.164 145.653L350.141 148.849L339.9 152.893L330.703 157.59L322.615 162.808L315.635 168.417L309.83 174.157L305.199 179.963L301.677 185.703L299.198 191.312L297.632 196.661L296.85 201.748V204.162L297.437 211.076L298.48 214.859L305.916 211.141L314.852 207.162L323.984 203.64L333.247 200.574L342.639 197.965L352.163 195.813L361.816 194.117L371.535 192.943L384.124 192.16V142.392V142.392ZM483.857 165.352L494.684 165.743L502.12 166.395L509.687 167.439L517.384 168.809L525.211 170.57L533.169 172.722L541.192 175.266L549.345 178.267L557.564 181.724L565.847 185.637L574.131 190.073L582.415 195.03L592.265 201.683L590.96 197.117L587.894 188.899L583.85 180.223L578.632 171.026L572.175 161.438L564.282 151.523L554.889 141.478L543.67 131.238L530.625 121.127L523.384 116.17L515.688 111.343L507.469 106.712L498.794 102.277L489.597 98.1022L479.943 94.1885L469.898 90.6663L459.462 87.4701L448.634 84.7306L437.545 82.3824L426.196 80.556L414.65 79.1862L398.474 78.2731V128.107L411.389 129.281L424.369 131.694L436.697 135.217L448.177 139.717L458.679 145.001L468.006 150.936L476.16 157.394L483.987 165.286L483.857 165.352ZM384.124 78.3383L379.297 78.4687L367.556 79.2515L356.011 80.6212L344.596 82.4476L333.508 84.7958L322.68 87.6006L312.243 90.7967L302.133 94.3842L292.545 98.2979L283.348 102.472L274.672 106.908L266.389 111.539L258.692 116.366L251.386 121.323L238.341 131.433L227.122 141.674L217.664 151.85L209.706 161.895L203.248 171.483L198.095 180.68L194.117 189.421L191.116 197.639L190.007 201.618L191.312 200.64L199.596 195.095L207.88 190.138L216.163 185.703L224.447 181.789L232.666 178.332L240.819 175.331L248.842 172.788L256.8 170.635L264.627 168.874L279.891 166.46L298.48 165.352L302.394 161.112L309.895 154.393L318.636 148.132L328.55 142.457L339.574 137.5L351.51 133.455L364.23 130.455L377.471 128.629L384.059 128.172V78.3383H384.124Z" fill="black"/>
</svg>
