<svg enable-background="new 0 0 1152 1152.001" height="1152.001" viewBox="0 0 1152 1152.001" width="1152" xmlns="http://www.w3.org/2000/svg"><circle cx="576" cy="576" fill="#4b5666" r="576"/><path d="m188.2964 188.29c214.2964-214.2959 561.1108-214.293 775.4106.0078l-387.7021 387.7012z" fill="#fbd35c"/><path d="m963.71 188.293c214.2979 214.2979 214.293 561.1104-.0068 775.4092l-387.7012-387.7012z" fill="#a4d970"/><path d="m963.7031 963.709c-214.2959 214.2988-561.1104 214.293-775.4102-.0068l387.7022-387.7012z" fill="#9ebeed"/><path d="m188.2896 963.707c-214.2959-214.2979-214.2925-561.1104.0068-775.4092l387.7026 387.7012z" fill="#fa7977"/><circle cx="576" cy="576" fill="#4b5666" r="194.6777"/><path d="m466.7227 560.9141-15.0771-39.3945h-.2432c.2842 3.1211.4258 6.8301.4258 11.127v28.2676h-4.7725v-44.4395h7.7822l14.0732 36.6582h.2432l14.1953-36.6582h7.7207v44.4395h-5.167v-28.6328c0-3.2832.1416-6.8496.4258-10.6992h-.2432l-15.1992 39.332h-4.164z" fill="#fff"/><path d="m541.833 538.6328c0 7.1133-1.7988 12.707-5.3955 16.7793-3.5977 4.0742-8.5977 6.1113-15.001 6.1113-6.5459 0-11.5967-2.002-15.1533-6.0039-3.5557-4.002-5.334-9.6523-5.334-16.9473 0-7.2344 1.7832-12.8418 5.3496-16.8242s8.6328-5.9727 15.1982-5.9727c6.3838 0 11.3682 2.0273 14.9551 6.0801s5.3809 9.6446 5.3809 16.7774zm-35.4121 0c0 6.0195 1.2812 10.584 3.8447 13.6953 2.5635 3.1094 6.2871 4.666 11.1709 4.666 4.9238 0 8.6426-1.5508 11.1553-4.6523 2.5127-3.0996 3.7695-7.6699 3.7695-13.709 0-5.9766-1.252-10.5117-3.7539-13.6016-2.5029-3.0898-6.2061-4.6348-11.1104-4.6348-4.9238 0-8.668 1.5547-11.2314 4.666-2.5635 3.1095-3.8447 7.6349-3.8447 13.5704z" fill="#fff"/><path d="m587.2148 538.2695c0 7.3359-1.9912 12.9434-5.9736 16.8242-3.9814 3.8809-9.7109 5.8203-17.1885 5.8203h-12.3115v-44.4395h13.6182c6.9102 0 12.2803 1.9141 16.1104 5.7441s5.745 9.1798 5.745 16.0509zm-5.4716.1817c0-5.7949-1.4541-10.1621-4.3623-13.1016-2.9082-2.9375-7.2295-4.4062-12.9639-4.4062h-7.5078v35.502h6.292c6.1602 0 10.791-1.5137 13.8916-4.543s4.6504-7.5137 4.6504-13.4512z" fill="#fff"/><path d="m621.8975 560.9141h-24.7735v-44.4395h24.7734v4.5898h-19.6054v14.3164h18.4199v4.5605h-18.4199v16.3535h19.6055z" fill="#fff"/><path d="m636.9141 542.4336v18.4805h-5.168v-44.4395h12.1895c5.4512 0 9.4785 1.043 12.083 3.1309 2.6035 2.0879 3.9053 5.2285 3.9053 9.4238 0 5.877-2.9785 9.8477-8.9365 11.9141l12.0674 19.9707h-6.1094l-10.7607-18.4805zm0-4.4375h7.082c3.6475 0 6.3232-.7246 8.0254-2.1738s2.5527-3.623 2.5527-6.5195c0-2.9395-.8662-5.0566-2.5986-6.3535s-4.5137-1.9453-8.3438-1.9453h-6.7178v16.9921z" fill="#fff"/><path d="m704.9424 560.9141h-5.8975l-24.2871-37.2969h-.2432c.3242 4.377.4863 8.3906.4863 12.0371v25.2598h-4.7725v-44.4395h5.8369l24.2256 37.1445h.2432c-.041-.5469-.1318-2.3047-.2734-5.2734s-.1924-5.0918-.1514-6.3691v-25.502h4.833v44.4395z" fill="#fff"/><path d="m525.54 635.6172-5.5322-14.1348h-17.8125l-5.4707 14.1348h-5.2285l17.5693-44.6211h4.3467l17.4785 44.6211zm-7.1425-18.7852-5.168-13.7695c-.668-1.7422-1.3574-3.8809-2.0664-6.4141-.4463 1.9453-1.085 4.084-1.915 6.4141l-5.2285 13.7695z" fill="#fff"/><path d="m556.5459 612.334h15.1064v21.6113c-2.3506.75-4.7412 1.3184-7.1729 1.7031-2.4326.3848-5.249.5781-8.4512.5781-6.7275 0-11.9658-2.002-15.7148-6.0039s-5.623-9.6113-5.623-16.8242c0-4.6211.9268-8.668 2.7812-12.1445 1.8545-3.4746 4.5234-6.1289 8.0098-7.9629 3.4844-1.834 7.5684-2.752 12.249-2.752 4.7422 0 9.1602.8711 13.2539 2.6152l-2.0068 4.5586c-4.0117-1.7031-7.8721-2.5527-11.5811-2.5527-5.4102 0-9.6357 1.6113-12.6758 4.832-3.0391 3.2227-4.5586 7.6914-4.5586 13.4062 0 5.998 1.4629 10.5469 4.3916 13.6465 2.9287 3.1016 7.2295 4.6523 12.9033 4.6523 3.0801 0 6.0898-.3555 9.0283-1.0645v-13.6797h-9.9395v-4.6189z" fill="#fff"/><path d="m582.3213 635.6172v-44.4395h5.168v44.4395z" fill="#fff"/><path d="m599.6777 635.6172v-44.4395h5.168v39.7598h19.6055v4.6797z" fill="#fff"/><path d="m656.7627 635.6172h-24.7734v-44.4395h24.7734v4.5898h-19.6055v14.3164h18.4199v4.5605h-18.4199v16.3535h19.6055z" fill="#fff"/><g fill="#4b5666"><path d="m462.9082 251.6055-8.6953-25.04h-.1641c.2324 3.7188.3486 7.2051.3486 10.459v14.5811h-4.4502v-29.9826h6.9111l8.3262 23.8506h.123l8.5723-23.8506h6.9316v29.9824h-4.7168v-14.8271c0-1.4902.0371-3.4316.1133-5.8242.0742-2.3926.1396-3.8418.1943-4.3477h-.1641l-9.0029 24.999h-4.327z"/><path d="m502.3857 251.6055-.9639-3.1582h-.1641c-1.0938 1.3809-2.1943 2.3213-3.3018 2.8203-1.1074.498-2.5293.748-4.2656.748-2.2285 0-3.9688-.6016-5.2188-1.8047-1.252-1.2031-1.877-2.9053-1.877-5.1064 0-2.3379.8682-4.1016 2.6045-5.291s4.3818-1.8389 7.9365-1.9482l3.917-.123v-1.21c0-1.4492-.3389-2.5322-1.0146-3.251-.6777-.7168-1.7266-1.0762-3.1484-1.0762-1.1621 0-2.2764.1709-3.3428.5127s-2.0918.7451-3.0762 1.21l-1.5586-3.4453c1.2305-.6426 2.5771-1.1309 4.04-1.4668 1.4629-.334 2.8438-.502 4.1426-.502 2.8848 0 5.0615.6289 6.5312 1.8867s2.2051 3.2334 2.2051 5.9268v15.2783zm-7.1777-3.2813c1.75 0 3.1543-.4883 4.2148-1.4668 1.0586-.9766 1.5889-2.3477 1.5889-4.1113v-1.9688l-2.9121.123c-2.2695.082-3.9209.4609-4.9521 1.1387-1.0332.6758-1.5488 1.7119-1.5488 3.1064 0 1.0117.3008 1.7939.9023 2.3486.6015.5529 1.5039.8302 2.707.8302z"/><path d="m517.2129 239.6289 2.7275-3.4043 6.8496-7.3008h5.5576l-9.126 9.7412 9.7002 12.9404h-5.6602l-7.2803-9.9463-2.6455 2.1738v7.7725h-4.7783v-31.9102h4.7783v15.5654l-.2461 4.3682h.1232z"/><path d="m546.4775 252.0156c-3.5273 0-6.2861-1.0283-8.2744-3.0859-1.9902-2.0576-2.9844-4.8916-2.9844-8.501 0-3.7051.9229-6.6172 2.7686-8.7363s4.3818-3.1787 7.6084-3.1787c2.9941 0 5.3594.9092 7.0957 2.7275s2.6045 4.3203 2.6045 7.5059v2.6045h-15.1143c.0684 2.2012.6631 3.8936 1.7842 5.0762s2.7002 1.7734 4.7373 1.7734c1.3398 0 2.5869-.126 3.7422-.3789s2.3965-.6738 3.7227-1.2617v3.917c-1.1758.5605-2.3652.957-3.5684 1.1895s-2.5771.3485-4.1221.3485zm-.8818-19.8515c-1.5312 0-2.7578.4854-3.6816 1.4561-.9219.9707-1.4727 2.3857-1.6504 4.2451h10.2949c-.0273-1.873-.4785-3.291-1.3535-4.2559-.875-.9629-2.0781-1.4453-3.6094-1.4453z"/><path d="m592.0459 230.6875c0 3.1309-1.0254 5.5303-3.0762 7.1982s-4.9697 2.502-8.7568 2.502h-3.1172v11.2178h-4.9014v-29.9825h8.6338c3.7461 0 6.5527.7656 8.418 2.2969 1.8672 1.5313 2.7998 3.7871 2.7998 6.7676zm-14.9502 5.5781h2.6045c2.5156 0 4.3613-.4375 5.5371-1.3125s1.7637-2.2422 1.7637-4.1016c0-1.7227-.5264-3.0078-1.5791-3.8555s-2.6934-1.2715-4.9219-1.2715h-3.4043z"/><path d="m607.4268 252.0156c-3.5273 0-6.2861-1.0283-8.2744-3.0859-1.9902-2.0576-2.9844-4.8916-2.9844-8.501 0-3.7051.9229-6.6172 2.7686-8.7363s4.3818-3.1787 7.6084-3.1787c2.9941 0 5.3594.9092 7.0957 2.7275s2.6045 4.3203 2.6045 7.5059v2.6045h-15.1143c.0684 2.2012.6631 3.8936 1.7842 5.0762s2.7002 1.7734 4.7373 1.7734c1.3398 0 2.5869-.126 3.7422-.3789s2.3965-.6738 3.7227-1.2617v3.917c-1.1758.5605-2.3652.957-3.5684 1.1895s-2.5772.3485-4.1221.3485zm-.8819-19.8515c-1.5312 0-2.7578.4854-3.6816 1.4561-.9219.9707-1.4727 2.3857-1.6504 4.2451h10.2949c-.0273-1.873-.4785-3.291-1.3535-4.2559-.875-.9629-2.0781-1.4453-3.6094-1.4453z"/><path d="m641.8389 240.2236c0 3.7051-.9502 6.5967-2.8506 8.6748s-4.5459 3.1172-7.9365 3.1172c-2.1191 0-3.9922-.4785-5.6191-1.4355s-2.8779-2.3311-3.7529-4.1221-1.3125-3.8691-1.3125-6.2344c0-3.6777.9434-6.5488 2.8301-8.6133s4.5459-3.0967 7.9775-3.0967c3.2812 0 5.8789 1.0566 7.793 3.168 1.9139 2.1133 2.871 4.96 2.871 8.542zm-16.5088 0c0 5.2363 1.9346 7.8545 5.8037 7.8545 3.8281 0 5.7422-2.6182 5.7422-7.8545 0-5.1816-1.9277-7.7725-5.7832-7.7725-2.0234 0-3.4902.6699-4.3994 2.0098s-1.3633 3.2608-1.3633 5.7627z"/><path d="m658.8809 252.0156c-2.8711 0-5.0996-1.0322-6.6855-3.0967h-.2871c.1914 1.9141.2871 3.0762.2871 3.4863v9.29h-4.8193v-32.7715h3.8965c.1094.4238.335 1.4355.6768 3.0352h.2461c1.5039-2.2969 3.7598-3.4453 6.7676-3.4453 2.8301 0 5.0342 1.0254 6.6143 3.0762 1.5781 2.0508 2.3682 4.9287 2.3682 8.6338s-.8037 6.5967-2.4092 8.6748c-1.6077 2.0782-3.8255 3.1172-6.6555 3.1172zm-1.169-19.5644c-1.9141 0-3.3125.5605-4.1934 1.6816-.8828 1.1211-1.3232 2.9121-1.3232 5.373v.7178c0 2.7617.4375 4.7617 1.3125 5.999s2.3037 1.8555 4.2861 1.8555c1.668 0 2.9531-.6836 3.8555-2.0508s1.3535-3.3154 1.3535-5.8447c0-2.543-.4482-4.4668-1.3438-5.7725s-2.2109-1.9589-3.9472-1.9589z"/><path d="m678.3633 251.6055h-4.8193v-31.9102h4.8193z"/><path d="m695.1592 252.0156c-3.5273 0-6.2861-1.0283-8.2744-3.0859-1.9902-2.0576-2.9844-4.8916-2.9844-8.501 0-3.7051.9229-6.6172 2.7686-8.7363s4.3818-3.1787 7.6084-3.1787c2.9941 0 5.3594.9092 7.0957 2.7275s2.6045 4.3203 2.6045 7.5059v2.6045h-15.1143c.0684 2.2012.6631 3.8936 1.7842 5.0762s2.7002 1.7734 4.7373 1.7734c1.3398 0 2.5869-.126 3.7422-.3789s2.3965-.6738 3.7227-1.2617v3.917c-1.1758.5605-2.3652.957-3.5684 1.1895s-2.5772.3485-4.1221.3485zm-.8819-19.8515c-1.5312 0-2.7578.4854-3.6816 1.4561-.9219.9707-1.4727 2.3857-1.6504 4.2451h10.2949c-.0273-1.873-.4785-3.291-1.3535-4.2559-.875-.9629-2.0781-1.4453-3.6094-1.4453z"/><path d="m500.1924 302.0059-2.9941-8.3262h-11.4639l-2.9326 8.3262h-5.168l11.2178-30.1055h5.332l11.2178 30.1055zm-4.2862-12.5508-2.8096-8.1621c-.2051-.5469-.4893-1.4082-.8516-2.584s-.6113-2.0371-.748-2.584c-.3691 1.6816-.9092 3.5205-1.6201 5.5166l-2.707 7.8135z"/><path d="m527.4473 302.0059-2.9326-10.582c-.3555-1.1211-.998-3.7256-1.9277-7.8135h-.1846c-.793 3.6914-1.4219 6.3096-1.8867 7.8545l-3.0146 10.541h-5.332l-6.3574-22.6816h4.9219l2.8916 11.1768c.6562 2.7617 1.1211 5.127 1.3945 7.0957h.123c.1367-.998.3447-2.1436.626-3.4346.2793-1.293.5225-2.2598.7275-2.9023l3.4453-11.9355h5.291l3.3428 11.9355c.2051.6699.4609 1.6953.7695 3.0762.3066 1.3809.4883 2.4541.543 3.2197h.1641c.2051-1.6816.6836-4.0332 1.4355-7.0547l2.9326-11.1768h4.8398l-6.3984 22.6816z"/><path d="m553.0615 302.416c-3.5273 0-6.2861-1.0283-8.2744-3.0859-1.9902-2.0576-2.9844-4.8916-2.9844-8.501 0-3.7051.9229-6.6172 2.7686-8.7363s4.3818-3.1787 7.6084-3.1787c2.9941 0 5.3594.9092 7.0957 2.7275s2.6045 4.3203 2.6045 7.5059v2.6045h-15.1143c.0684 2.2012.6631 3.8936 1.7842 5.0762s2.7002 1.7734 4.7373 1.7734c1.3398 0 2.5869-.126 3.7422-.3789s2.3965-.6738 3.7227-1.2617v3.917c-1.1758.5605-2.3652.957-3.5684 1.1895s-2.5772.3485-4.1221.3485zm-.8818-19.8515c-1.5312 0-2.7578.4854-3.6816 1.4561-.9219.9707-1.4727 2.3857-1.6504 4.2451h10.2949c-.0273-1.873-.4785-3.291-1.3535-4.2559-.875-.9629-2.0782-1.4453-3.6094-1.4453z"/><path d="m582.5928 295.5459c0 2.2148-.8066 3.9141-2.4199 5.0967s-3.9238 1.7734-6.9316 1.7734c-3.0215 0-5.4482-.458-7.2803-1.374v-4.1631c2.666 1.2305 5.1475 1.8457 7.4443 1.8457 2.9668 0 4.4502-.8955 4.4502-2.6865 0-.5742-.1641-1.0527-.4922-1.4355s-.8682-.7793-1.6201-1.1895-1.7979-.875-3.1377-1.3945c-2.6113-1.0117-4.3789-2.0234-5.3008-3.0352-.9238-1.0117-1.3848-2.3242-1.3848-3.9375 0-1.9414.7822-3.4482 2.3477-4.5225 1.5654-1.0723 3.6953-1.6094 6.3887-1.6094 2.666 0 5.1885.54 7.5674 1.6201l-1.5586 3.6299c-2.4473-1.0117-4.5049-1.5176-6.1729-1.5176-2.543 0-3.8145.7246-3.8145 2.1738 0 .7109.3311 1.3125.9941 1.8047s2.1094 1.1689 4.3379 2.0303c1.873.7246 3.2334 1.3877 4.0811 1.9893s1.4766 1.2959 1.8867 2.082.6153 1.7256.6153 2.8194z"/><path d="m607.9199 290.624c0 3.7051-.9502 6.5967-2.8506 8.6748s-4.5459 3.1172-7.9365 3.1172c-2.1191 0-3.9922-.4785-5.6191-1.4355s-2.8779-2.3311-3.7529-4.1221-1.3125-3.8691-1.3125-6.2344c0-3.6777.9434-6.5488 2.8301-8.6133s4.5459-3.0967 7.9775-3.0967c3.2812 0 5.8789 1.0566 7.793 3.168 1.914 2.1133 2.871 4.96 2.871 8.542zm-16.5088 0c0 5.2363 1.9346 7.8545 5.8037 7.8545 3.8281 0 5.7422-2.6182 5.7422-7.8545 0-5.1816-1.9277-7.7725-5.7832-7.7725-2.0234 0-3.4902.6699-4.3994 2.0098s-1.3633 3.2608-1.3633 5.7627z"/><path d="m632.5703 302.0059h-4.8398v-13.9863c0-1.7363-.3281-3.0312-.9844-3.8867-.6562-.8535-1.6816-1.2812-3.0762-1.2812-1.8594 0-3.2236.6055-4.0918 1.8145-.8682 1.2109-1.3018 3.2236-1.3018 6.04v11.2998h-4.8193v-22.6816h3.7734l.6768 2.9736h.2461c.6289-1.0801 1.541-1.9141 2.7373-2.502s2.5127-.8818 3.9482-.8818c3.4863 0 5.7969 1.1895 6.9316 3.5684h.3281c.6699-1.1211 1.6133-1.9961 2.8301-2.625s2.6113-.9434 4.1836-.9434c2.707 0 4.6787.6836 5.917 2.0508 1.2363 1.3672 1.8555 3.4521 1.8555 6.2549v14.7861h-4.8193v-13.9863c0-1.7363-.332-3.0312-.9951-3.8867-.6631-.8535-1.6914-1.2812-3.0859-1.2812-1.873 0-3.2441.584-4.1113 1.7539-.8691 1.168-1.3027 2.9629-1.3027 5.3828v12.0174z"/><path d="m663.5166 302.416c-3.5273 0-6.2861-1.0283-8.2744-3.0859-1.9902-2.0576-2.9844-4.8916-2.9844-8.501 0-3.7051.9229-6.6172 2.7686-8.7363s4.3818-3.1787 7.6084-3.1787c2.9941 0 5.3594.9092 7.0957 2.7275s2.6045 4.3203 2.6045 7.5059v2.6045h-15.1143c.0684 2.2012.6631 3.8936 1.7842 5.0762s2.7002 1.7734 4.7373 1.7734c1.3398 0 2.5869-.126 3.7422-.3789s2.3965-.6738 3.7227-1.2617v3.917c-1.1758.5605-2.3652.957-3.5684 1.1895s-2.5772.3485-4.1221.3485zm-.8818-19.8515c-1.5312 0-2.7578.4854-3.6816 1.4561-.9219.9707-1.4727 2.3857-1.6504 4.2451h10.2949c-.0273-1.873-.4785-3.291-1.3535-4.2559-.8751-.9629-2.0782-1.4453-3.6094-1.4453z"/><path d="m468.8359 994.7217-8.6953-25.04h-.1641c.2324 3.7188.3486 7.2051.3486 10.459v14.5811h-4.4502v-29.9824h6.9111l8.3262 23.8506h.123l8.5723-23.8506h6.9316v29.9824h-4.7168v-14.8271c0-1.4902.0371-3.4316.1133-5.8242.0742-2.3926.1396-3.8418.1943-4.3477h-.1641l-9.0029 24.999h-4.327z"/><path d="m508.3135 994.7217-.9639-3.1582h-.1641c-1.0938 1.3809-2.1943 2.3213-3.3018 2.8203-1.1074.498-2.5293.748-4.2656.748-2.2285 0-3.9688-.6016-5.2188-1.8047-1.252-1.2031-1.877-2.9053-1.877-5.1064 0-2.3379.8682-4.1016 2.6045-5.291s4.3818-1.8389 7.9365-1.9482l3.917-.123v-1.21c0-1.4492-.3389-2.5322-1.0146-3.251-.6777-.7168-1.7266-1.0762-3.1484-1.0762-1.1621 0-2.2764.1709-3.3428.5127s-2.0918.7451-3.0762 1.21l-1.5586-3.4453c1.2305-.6426 2.5771-1.1309 4.04-1.4668 1.4629-.334 2.8438-.502 4.1426-.502 2.8848 0 5.0615.6289 6.5312 1.8867s2.2051 3.2334 2.2051 5.9268v15.2783zm-7.1778-3.2813c1.75 0 3.1543-.4883 4.2148-1.4668 1.0586-.9766 1.5889-2.3477 1.5889-4.1113v-1.9688l-2.9121.123c-2.2695.082-3.9209.4609-4.9521 1.1387-1.0332.6758-1.5488 1.7119-1.5488 3.1064 0 1.0117.3008 1.7939.9023 2.3486.6016.5529 1.5039.8302 2.707.8302z"/><path d="m523.1406 982.7451 2.7275-3.4043 6.8496-7.3008h5.5576l-9.126 9.7412 9.7002 12.9404h-5.6602l-7.2803-9.9463-2.6455 2.1738v7.7725h-4.7783v-31.9102h4.7783v15.5654l-.2461 4.3682h.1232z"/><path d="m552.4053 995.1318c-3.5273 0-6.2861-1.0283-8.2744-3.0859-1.9902-2.0576-2.9844-4.8916-2.9844-8.501 0-3.7051.9229-6.6172 2.7686-8.7363s4.3818-3.1787 7.6084-3.1787c2.9941 0 5.3594.9092 7.0957 2.7275s2.6045 4.3203 2.6045 7.5059v2.6045h-15.1143c.0684 2.2012.6631 3.8936 1.7842 5.0762s2.7002 1.7734 4.7373 1.7734c1.3398 0 2.5869-.126 3.7422-.3789s2.3965-.6738 3.7227-1.2617v3.917c-1.1758.5605-2.3652.957-3.5684 1.1895s-2.5772.3485-4.1221.3485zm-.8819-19.8515c-1.5312 0-2.7578.4854-3.6816 1.4561-.9219.9707-1.4727 2.3857-1.6504 4.2451h10.2949c-.0273-1.873-.4785-3.291-1.3535-4.2559-.875-.9629-2.0781-1.4453-3.6094-1.4453z"/><path d="m595.4102 986.5801c0 2.666-.9639 4.7578-2.8916 6.2754s-4.5869 2.2764-7.9775 2.2764-6.166-.5264-8.3262-1.5791v-4.6348c1.3672.6426 2.8203 1.1484 4.3574 1.5176 1.5391.3691 2.9707.5537 4.2969.5537 1.9414 0 3.373-.3691 4.2969-1.1074.9219-.7383 1.3838-1.7295 1.3838-2.9736 0-1.1211-.4238-2.0713-1.2715-2.8506s-2.5977-1.7021-5.25-2.7686c-2.7344-1.1074-4.6621-2.3721-5.7832-3.7939s-1.6816-3.1309-1.6816-5.127c0-2.502.8887-4.4707 2.666-5.9062s4.1631-2.1533 7.1572-2.1533c2.8711 0 5.7285.6289 8.5723 1.8867l-1.5586 3.999c-2.666-1.1211-5.0449-1.6816-7.1367-1.6816-1.5859 0-2.7891.3457-3.6094 1.0352-.8203.6914-1.2305 1.6035-1.2305 2.7383 0 .7793.1641 1.4453.4922 2 .3281.5527.8682 1.0762 1.6201 1.5684s2.1055 1.1416 4.0605 1.9482c2.2012.916 3.8145 1.7705 4.8398 2.5635s1.7773 1.6885 2.2559 2.6865.7178 2.1737.7178 3.5272z"/><path d="m614.8926 994.7217-.9639-3.1582h-.1641c-1.0938 1.3809-2.1943 2.3213-3.3018 2.8203-1.1074.498-2.5293.748-4.2656.748-2.2285 0-3.9688-.6016-5.2188-1.8047-1.252-1.2031-1.877-2.9053-1.877-5.1064 0-2.3379.8682-4.1016 2.6045-5.291s4.3818-1.8389 7.9365-1.9482l3.917-.123v-1.21c0-1.4492-.3389-2.5322-1.0146-3.251-.6777-.7168-1.7266-1.0762-3.1484-1.0762-1.1621 0-2.2764.1709-3.3428.5127s-2.0918.7451-3.0762 1.21l-1.5586-3.4453c1.2305-.6426 2.5771-1.1309 4.04-1.4668 1.4629-.334 2.8438-.502 4.1426-.502 2.8848 0 5.0615.6289 6.5312 1.8867s2.2051 3.2334 2.2051 5.9268v15.2783zm-7.1778-3.2813c1.75 0 3.1543-.4883 4.2148-1.4668 1.0586-.9766 1.5889-2.3477 1.5889-4.1113v-1.9688l-2.9121.123c-2.2695.082-3.9209.4609-4.9521 1.1387-1.0332.6758-1.5488 1.7119-1.5488 3.1064 0 1.0117.3008 1.7939.9023 2.3486.6016.5529 1.5039.8302 2.707.8302z"/><path d="m636.4463 975.6904h-5.5371v19.0312h-4.8398v-19.0312h-3.7324v-2.2559l3.7324-1.4766v-1.4766c0-2.6797.6289-4.666 1.8867-5.957 1.2578-1.293 3.1787-1.9385 5.7627-1.9385 1.6953 0 3.3633.2803 5.0039.8408l-1.2715 3.6504c-1.1895-.3828-2.3242-.5742-3.4043-.5742-1.0938 0-1.8906.3379-2.3887 1.0156-.5.6758-.749 1.6914-.749 3.0449v1.4766h5.5371z"/><path d="m650.207 995.1318c-3.5273 0-6.2861-1.0283-8.2744-3.0859-1.9902-2.0576-2.9844-4.8916-2.9844-8.501 0-3.7051.9229-6.6172 2.7686-8.7363s4.3818-3.1787 7.6084-3.1787c2.9941 0 5.3594.9092 7.0957 2.7275s2.6045 4.3203 2.6045 7.5059v2.6045h-15.1143c.0684 2.2012.6631 3.8936 1.7842 5.0762s2.7002 1.7734 4.7373 1.7734c1.3398 0 2.5869-.126 3.7422-.3789s2.3965-.6738 3.7227-1.2617v3.917c-1.1758.5605-2.3652.957-3.5684 1.1895s-2.5771.3485-4.1221.3485zm-.8818-19.8515c-1.5312 0-2.7578.4854-3.6816 1.4561-.9219.9707-1.4727 2.3857-1.6504 4.2451h10.2949c-.0273-1.873-.4785-3.291-1.3535-4.2559-.875-.9629-2.0782-1.4453-3.6094-1.4453z"/><path d="m672.9502 991.2354c1.1758 0 2.3516-.1846 3.5273-.5537v3.6299c-.5332.2324-1.2207.4268-2.0605.584-.8418.1572-1.7129.2363-2.6152.2363-4.5664 0-6.8496-2.4062-6.8496-7.2188v-12.2227h-3.0967v-2.1328l3.3223-1.7637 1.6406-4.7988h2.9736v5.0449h6.46v3.6504h-6.46v12.1406c0 1.1621.29 2.0195.8711 2.5742.581.5528 1.3437.8302 2.2871.8302z"/><path d="m677.5645 972.04h5.25l4.6143 12.8584c.6973 1.832 1.1621 3.5547 1.3945 5.168h.1641c.123-.752.3486-1.6641.6768-2.7373s2.0645-6.1699 5.209-15.2891h5.209l-9.7002 25.6963c-1.7637 4.7168-4.7031 7.0752-8.8184 7.0752-1.0664 0-2.1055-.1162-3.1172-.3486v-3.8145c.7246.1641 1.5518.2461 2.4814.2461 2.3242 0 3.958-1.3467 4.9014-4.04l.8408-2.1328z"/><path d="m452.0703 1045.1221-.9639-3.1582h-.1641c-1.0938 1.3809-2.1943 2.3213-3.3018 2.8203-1.1074.498-2.5293.748-4.2656.748-2.2285 0-3.9688-.6016-5.2188-1.8047-1.252-1.2031-1.877-2.9053-1.877-5.1064 0-2.3379.8682-4.1016 2.6045-5.291s4.3818-1.8389 7.9365-1.9482l3.917-.123v-1.21c0-1.4492-.3389-2.5322-1.0146-3.251-.6777-.7168-1.7266-1.0762-3.1484-1.0762-1.1621 0-2.2764.1709-3.3428.5127s-2.0918.7451-3.0762 1.21l-1.5586-3.4453c1.2305-.6426 2.5771-1.1309 4.04-1.4668 1.4629-.334 2.8438-.502 4.1426-.502 2.8848 0 5.0615.6289 6.5312 1.8867s2.2051 3.2334 2.2051 5.9268v15.2783zm-7.1777-3.2813c1.75 0 3.1543-.4883 4.2148-1.4668 1.0586-.9766 1.5889-2.3477 1.5889-4.1113v-1.9688l-2.9121.123c-2.2695.082-3.9209.4609-4.9521 1.1387-1.0332.6758-1.5488 1.7119-1.5488 3.1064 0 1.0117.3008 1.7939.9023 2.3486.6015.5529 1.5039.8302 2.707.8302z"/><path d="m493.5166 1024.2041c0 3.1309-1.0254 5.5303-3.0762 7.1982s-4.9697 2.502-8.7568 2.502h-3.1172v11.2178h-4.9014v-29.9824h8.6338c3.7461 0 6.5527.7656 8.418 2.2969 1.8672 1.5312 2.7998 3.787 2.7998 6.7675zm-14.9502 5.5781h2.6045c2.5156 0 4.3613-.4375 5.5371-1.3125s1.7637-2.2422 1.7637-4.1016c0-1.7227-.5264-3.0078-1.5791-3.8555s-2.6934-1.2715-4.9219-1.2715h-3.4043z"/><path d="m510.4971 1022.0303c.9707 0 1.7705.0684 2.3994.2051l-.4717 4.4912c-.6836-.1641-1.3945-.2461-2.1328-.2461-1.9277 0-3.4902.6289-4.6865 1.8867s-1.7939 2.8916-1.7939 4.9014v11.8535h-4.8193v-22.6816h3.7734l.6357 3.999h.2461c.752-1.3535 1.7334-2.4268 2.9424-3.2197 1.2109-.793 2.5126-1.1895 3.9072-1.1895z"/><path d="m527.0059 1045.5322c-3.5273 0-6.2861-1.0283-8.2744-3.0859-1.9902-2.0576-2.9844-4.8916-2.9844-8.501 0-3.7051.9229-6.6172 2.7686-8.7363s4.3818-3.1787 7.6084-3.1787c2.9941 0 5.3594.9092 7.0957 2.7275s2.6045 4.3203 2.6045 7.5059v2.6045h-15.1143c.0684 2.2012.6631 3.8936 1.7842 5.0762s2.7002 1.7734 4.7373 1.7734c1.3398 0 2.5869-.126 3.7422-.3789s2.3965-.6738 3.7227-1.2617v3.917c-1.1758.5605-2.3652.957-3.5684 1.1895s-2.5772.3485-4.1221.3485zm-.8819-19.8515c-1.5312 0-2.7578.4854-3.6816 1.4561-.9219.9707-1.4727 2.3857-1.6504 4.2451h10.2949c-.0273-1.873-.4785-3.291-1.3535-4.2559-.875-.9629-2.0781-1.4453-3.6094-1.4453z"/><path d="m552.8047 1022.0303c.9707 0 1.7705.0684 2.3994.2051l-.4717 4.4912c-.6836-.1641-1.3945-.2461-2.1328-.2461-1.9277 0-3.4902.6289-4.6865 1.8867s-1.7939 2.8916-1.7939 4.9014v11.8535h-4.8193v-22.6816h3.7734l.6357 3.999h.2461c.752-1.3535 1.7334-2.4268 2.9424-3.2197 1.2109-.793 2.5127-1.1895 3.9072-1.1895z"/><path d="m569.3135 1045.5322c-3.5273 0-6.2861-1.0283-8.2744-3.0859-1.9902-2.0576-2.9844-4.8916-2.9844-8.501 0-3.7051.9229-6.6172 2.7686-8.7363s4.3818-3.1787 7.6084-3.1787c2.9941 0 5.3594.9092 7.0957 2.7275s2.6045 4.3203 2.6045 7.5059v2.6045h-15.1143c.0684 2.2012.6631 3.8936 1.7842 5.0762s2.7002 1.7734 4.7373 1.7734c1.3398 0 2.5869-.126 3.7422-.3789s2.3965-.6738 3.7227-1.2617v3.917c-1.1758.5605-2.3652.957-3.5684 1.1895s-2.5772.3485-4.1221.3485zm-.8819-19.8515c-1.5312 0-2.7578.4854-3.6816 1.4561-.9219.9707-1.4727 2.3857-1.6504 4.2451h10.2949c-.0273-1.873-.4785-3.291-1.3535-4.2559-.875-.9629-2.0781-1.4453-3.6094-1.4453z"/><path d="m591.2158 1045.5322c-2.8027 0-4.9971-1.0283-6.583-3.0859s-2.3789-4.9326-2.3789-8.624.8066-6.5791 2.4199-8.665c1.6133-2.084 3.835-3.127 6.665-3.127 1.4219 0 2.6963.2637 3.8252.7891 1.127.5273 2.1357 1.3916 3.0244 2.5947h.1641l.5332-2.9736h3.999v32.7715h-4.8398v-9.6182c0-.6016.0273-1.2373.082-1.9072s.1025-1.1826.1436-1.5381h-.2666c-1.4219 2.2558-3.6846 3.3837-6.7881 3.3837zm1.374-3.8554c2.0234 0 3.4766-.584 4.3574-1.7539.8828-1.168 1.3232-2.9355 1.3232-5.3008v-.7588c0-2.8027-.4551-4.8193-1.3643-6.0498s-2.375-1.8457-4.3984-1.8457c-1.7227 0-3.0352.6836-3.9375 2.0508s-1.3535 3.3291-1.3535 5.8857c.0001 5.1816 1.7911 7.7725 5.3731 7.7725z"/><path d="m625.7715 1045.1221-.6768-2.9736h-.2461c-.6699 1.0527-1.624 1.8799-2.8604 2.4814-1.2383.6016-2.6494.9023-4.2354.9023-2.748 0-4.7988-.6836-6.1523-2.0508s-2.0303-3.4385-2.0303-6.2139v-14.8271h4.8604v13.9863c0 1.7363.3555 3.0391 1.0664 3.9062.7109.8691 1.8252 1.3027 3.3428 1.3027 2.0234 0 3.5098-.6055 4.4609-1.8145.9492-1.2109 1.4248-3.2373 1.4248-6.0811v-11.2998h4.8398v22.6816h-3.7938z"/><path d="m636.1484 1016.4316c0-.8613.2363-1.5244.707-1.9893.4727-.4648 1.1455-.6973 2.0205-.6973.8477 0 1.5068.2324 1.9795.6973.4707.4648.707 1.1279.707 1.9893 0 .8203-.2363 1.4658-.707 1.9385-.4727.4707-1.1318.707-1.9795.707-.875 0-1.5479-.2363-2.0205-.707-.4706-.4726-.707-1.1181-.707-1.9385zm5.1065 28.6905h-4.8193v-22.6816h4.8193z"/><path d="m663.3828 1038.6621c0 2.2148-.8066 3.9141-2.4199 5.0967s-3.9238 1.7734-6.9316 1.7734c-3.0215 0-5.4482-.458-7.2803-1.374v-4.1631c2.666 1.2305 5.1475 1.8457 7.4443 1.8457 2.9668 0 4.4502-.8955 4.4502-2.6865 0-.5742-.1641-1.0527-.4922-1.4355s-.8682-.7793-1.6201-1.1895-1.7979-.875-3.1377-1.3945c-2.6113-1.0117-4.3789-2.0234-5.3008-3.0352-.9238-1.0117-1.3848-2.3242-1.3848-3.9375 0-1.9414.7822-3.4482 2.3477-4.5225 1.5654-1.0723 3.6953-1.6094 6.3887-1.6094 2.666 0 5.1885.54 7.5674 1.6201l-1.5586 3.6299c-2.4473-1.0117-4.5049-1.5176-6.1729-1.5176-2.543 0-3.8145.7246-3.8145 2.1738 0 .7109.3311 1.3125.9941 1.8047s2.1094 1.1689 4.3379 2.0303c1.873.7246 3.2334 1.3877 4.0811 1.9893s1.4766 1.2959 1.8867 2.082.6153 1.7257.6153 2.8194z"/><path d="m668.3047 1016.4316c0-.8613.2363-1.5244.707-1.9893.4727-.4648 1.1455-.6973 2.0205-.6973.8477 0 1.5068.2324 1.9795.6973.4707.4648.707 1.1279.707 1.9893 0 .8203-.2363 1.4658-.707 1.9385-.4727.4707-1.1318.707-1.9795.707-.875 0-1.5479-.2363-2.0205-.707-.4707-.4726-.707-1.1181-.707-1.9385zm5.1064 28.6905h-4.8193v-22.6816h4.8193z"/><path d="m688.751 1041.6357c1.1758 0 2.3516-.1846 3.5273-.5537v3.6299c-.5332.2324-1.2207.4268-2.0605.584-.8418.1572-1.7129.2363-2.6152.2363-4.5664 0-6.8496-2.4062-6.8496-7.2188v-12.2227h-3.0967v-2.1328l3.3223-1.7637 1.6406-4.7988h2.9736v5.0449h6.46v3.6504h-6.46v12.1406c0 1.1621.29 2.0195.8711 2.5742.581.5529 1.3437.8302 2.2871.8302z"/><path d="m706.7158 1045.5322c-3.5273 0-6.2861-1.0283-8.2744-3.0859-1.9902-2.0576-2.9844-4.8916-2.9844-8.501 0-3.7051.9229-6.6172 2.7686-8.7363s4.3818-3.1787 7.6084-3.1787c2.9941 0 5.3594.9092 7.0957 2.7275s2.6045 4.3203 2.6045 7.5059v2.6045h-15.1143c.0684 2.2012.6631 3.8936 1.7842 5.0762s2.7002 1.7734 4.7373 1.7734c1.3398 0 2.5869-.126 3.7422-.3789s2.3965-.6738 3.7227-1.2617v3.917c-1.1758.5605-2.3652.957-3.5684 1.1895s-2.5772.3485-4.1221.3485zm-.8818-19.8515c-1.5312 0-2.7578.4854-3.6816 1.4561-.9219.9707-1.4727 2.3857-1.6504 4.2451h10.2949c-.0273-1.873-.4785-3.291-1.3535-4.2559-.875-.9629-2.0782-1.4453-3.6094-1.4453z"/><path d="m842.2998 594.0576c0 4.9492-1.375 8.7334-4.123 11.3506-2.748 2.6191-6.7051 3.9277-11.873 3.9277h-8.3887v-29.9824h9.2695c4.7715 0 8.4844 1.2852 11.1367 3.8555s3.9785 6.1865 3.9785 10.8486zm-5.168.1641c0-7.1777-3.3574-10.7666-10.0703-10.7666h-4.2441v21.7588h3.4863c7.2188 0 10.8281-3.6641 10.8281-10.9922z"/><path d="m858.1318 609.7461c-3.5273 0-6.2871-1.0283-8.2754-3.0859-1.9902-2.0576-2.9844-4.8916-2.9844-8.501 0-3.7051.9238-6.6172 2.7695-8.7363s4.3809-3.1787 7.6074-3.1787c2.9941 0 5.3594.9092 7.0957 2.7275s2.6055 4.3203 2.6055 7.5059v2.6045h-15.1151c.0684 2.2012.6641 3.8936 1.7852 5.0762s2.6992 1.7734 4.7363 1.7734c1.3398 0 2.5879-.126 3.7422-.3789 1.1562-.2529 2.3965-.6738 3.7227-1.2617v3.917c-1.1758.5605-2.3652.957-3.5684 1.1895s-2.5762.3485-4.1212.3485zm-.8828-19.8516c-1.5312 0-2.7578.4854-3.6816 1.4561-.9219.9707-1.4727 2.3857-1.6504 4.2451h10.2949c-.0273-1.873-.4785-3.291-1.3535-4.2559-.875-.9628-2.0781-1.4453-3.6094-1.4453z"/><path d="m877.2451 609.3359h-4.8203v-31.9102h4.8203z"/><path d="m883.8486 580.6455c0-.8613.2363-1.5244.707-1.9893.4727-.4648 1.1445-.6973 2.0195-.6973.8477 0 1.5078.2324 1.9805.6973.4707.4648.707 1.1279.707 1.9893 0 .8203-.2363 1.4658-.707 1.9385-.4727.4707-1.1328.707-1.9805.707-.875 0-1.5469-.2363-2.0195-.707-.4706-.4727-.707-1.1182-.707-1.9385zm5.1055 28.6904h-4.8184v-22.6816h4.8184z"/><path d="m901.0127 609.3359-8.6133-22.6816h5.0859l4.6152 13.1865c.793 2.2148 1.2715 4.0059 1.4355 5.373h.1641c.123-.9844.6016-2.7754 1.4355-5.373l4.6133-13.1865h5.127l-8.6543 22.6816z"/><path d="m928.2275 609.7461c-3.5273 0-6.2871-1.0283-8.2754-3.0859-1.9902-2.0576-2.9844-4.8916-2.9844-8.501 0-3.7051.9238-6.6172 2.7695-8.7363s4.3809-3.1787 7.6074-3.1787c2.9941 0 5.3594.9092 7.0957 2.7275s2.6055 4.3203 2.6055 7.5059v2.6045h-15.1152c.0684 2.2012.6641 3.8936 1.7852 5.0762s2.6992 1.7734 4.7363 1.7734c1.3398 0 2.5879-.126 3.7422-.3789 1.1562-.2529 2.3965-.6738 3.7227-1.2617v3.917c-1.1758.5605-2.3652.957-3.5684 1.1895s-2.5761.3485-4.1211.3485zm-.8828-19.8516c-1.5312 0-2.7578.4854-3.6816 1.4561-.9219.9707-1.4727 2.3857-1.6504 4.2451h10.2949c-.0273-1.873-.4785-3.291-1.3535-4.2559-.875-.9628-2.0781-1.4453-3.6094-1.4453z"/><path d="m954.0264 586.2441c.9707 0 1.7695.0684 2.3984.2051l-.4707 4.4912c-.6836-.1641-1.3945-.2461-2.1328-.2461-1.9277 0-3.4902.6289-4.6875 1.8867-1.1953 1.2578-1.793 2.8916-1.793 4.9014v11.8535h-4.8203v-22.6816h3.7734l.6367 3.999h.2461c.752-1.3535 1.7324-2.4268 2.9414-3.2197 1.211-.793 2.5137-1.1895 3.9083-1.1895z"/><path d="m989.1357 579.3535h5.0859l-10.5 29.9824h-5.168l-10.459-29.9824h5.0449l6.2539 18.6416c.3281.8887.6777 2.0342 1.0469 3.4346.3691 1.4023.6074 2.4443.7168 3.1279.1777-1.0391.4512-2.2422.8203-3.6094s.6699-2.3789.9023-3.0352z"/><path d="m1011.8584 609.3359-.9648-3.1582h-.1641c-1.0938 1.3809-2.1934 2.3213-3.3008 2.8203-1.1074.498-2.5293.748-4.2656.748-2.2285 0-3.9688-.6016-5.2188-1.8047-1.252-1.2031-1.877-2.9053-1.877-5.1064 0-2.3379.8672-4.1016 2.6035-5.291s4.3828-1.8389 7.9375-1.9482l3.916-.123v-1.21c0-1.4492-.3379-2.5322-1.0137-3.251-.6777-.7168-1.7266-1.0762-3.1484-1.0762-1.1621 0-2.2773.1709-3.3438.5127s-2.0918.7451-3.0762 1.21l-1.5586-3.4453c1.2305-.6426 2.5781-1.1309 4.041-1.4668 1.4629-.334 2.8438-.502 4.1426-.502 2.8848 0 5.0605.6289 6.5312 1.8867 1.4688 1.2578 2.2051 3.2334 2.2051 5.9268v15.2783zm-7.1777-3.2812c1.75 0 3.1543-.4883 4.2148-1.4668 1.0586-.9766 1.5879-2.3477 1.5879-4.1113v-1.9688l-2.9121.123c-2.2695.082-3.9199.4609-4.9512 1.1387-1.0332.6758-1.5488 1.7119-1.5488 3.1064 0 1.0117.3008 1.7939.9023 2.3486.6016.5528 1.5039.8302 2.7071.8302z"/><path d="m1026.8486 609.3359h-4.8184v-31.9102h4.8184z"/><path d="m1049.7354 609.3359-.6758-2.9736h-.2461c-.6699 1.0527-1.625 1.8799-2.8613 2.4814-1.2383.6016-2.6484.9023-4.2344.9023-2.748 0-4.7988-.6836-6.1523-2.0508s-2.0312-3.4385-2.0312-6.2139v-14.8271h4.8613v13.9863c0 1.7363.3555 3.0391 1.0664 3.9062.7109.8691 1.8242 1.3027 3.3418 1.3027 2.0234 0 3.5098-.6055 4.4609-1.8145.9492-1.2109 1.4258-3.2373 1.4258-6.0811v-11.2998h4.8398v22.6816h-3.7949z"/><path d="m1070.3057 609.7461c-3.5273 0-6.2871-1.0283-8.2754-3.0859-1.9902-2.0576-2.9844-4.8916-2.9844-8.501 0-3.7051.9238-6.6172 2.7695-8.7363s4.3809-3.1787 7.6074-3.1787c2.9941 0 5.3594.9092 7.0957 2.7275s2.6055 4.3203 2.6055 7.5059v2.6045h-15.1152c.0684 2.2012.6641 3.8936 1.7852 5.0762s2.6992 1.7734 4.7363 1.7734c1.3398 0 2.5879-.126 3.7422-.3789 1.1562-.2529 2.3965-.6738 3.7227-1.2617v3.917c-1.1758.5605-2.3652.957-3.5684 1.1895s-2.5762.3485-4.1211.3485zm-.8828-19.8516c-1.5312 0-2.7578.4854-3.6816 1.4561-.9219.9707-1.4727 2.3857-1.6504 4.2451h10.2949c-.0273-1.873-.4785-3.291-1.3535-4.2559-.8751-.9628-2.0782-1.4453-3.6094-1.4453z"/><path d="m830.5381 633.5273c-2.8164 0-5.0312.998-6.6445 2.9941s-2.4199 4.751-2.4199 8.2646c0 3.6777.7754 6.46 2.3262 8.3467 1.5527 1.8867 3.7988 2.8301 6.7383 2.8301 1.2715 0 2.502-.126 3.6914-.3789s2.4258-.5781 3.7109-.9746v4.2041c-2.3516.8887-5.0176 1.333-7.998 1.333-4.3887 0-7.7578-1.3291-10.1094-3.9883s-3.5273-6.4639-3.5273-11.4131c0-3.1172.5703-5.8447 1.7109-8.1826 1.1426-2.3379 2.793-4.1289 4.9531-5.373s4.6973-1.8662 7.6094-1.8662c3.0625 0 5.8926.6426 8.4902 1.9277l-1.7637 4.0811c-1.0117-.4785-2.082-.8984-3.2109-1.2617-1.127-.3613-2.3126-.543-3.5567-.543z"/><path d="m864.0068 648.3545c0 3.7051-.9512 6.5967-2.8516 8.6748s-4.5449 3.1172-7.9355 3.1172c-2.1191 0-3.9922-.4785-5.6191-1.4355s-2.8789-2.3311-3.7539-4.1221-1.3125-3.8691-1.3125-6.2344c0-3.6777.9434-6.5488 2.8301-8.6133s4.5469-3.0967 7.9785-3.0967c3.2812 0 5.8789 1.0566 7.793 3.168 1.914 2.1133 2.871 4.96 2.871 8.542zm-16.5097 0c0 5.2363 1.9355 7.8545 5.8047 7.8545 3.8281 0 5.7422-2.6182 5.7422-7.8545 0-5.1816-1.9277-7.7725-5.7832-7.7725-2.0234 0-3.4902.6699-4.4004 2.0098-.9083 1.3398-1.3633 3.2607-1.3633 5.7627z"/><path d="m889.4971 659.7363h-4.8398v-13.9453c0-1.75-.3516-3.0557-1.0547-3.917-.7051-.8613-1.8223-1.292-3.3535-1.292-2.0371 0-3.5273.6016-4.4707 1.8047s-1.416 3.2197-1.416 6.0498v11.2998h-4.8184v-22.6816h3.7734l.6758 2.9736h.2461c.6836-1.0801 1.6543-1.9141 2.9121-2.502s2.6523-.8818 4.1836-.8818c5.4414 0 8.1621 2.7686 8.1621 8.3057z"/><path d="m904.6533 656.25c1.1758 0 2.3516-.1846 3.5273-.5537v3.6299c-.5332.2324-1.2207.4268-2.0605.584-.8418.1572-1.7129.2363-2.6152.2363-4.5664 0-6.8496-2.4062-6.8496-7.2188v-12.2227h-3.0977v-2.1328l3.3223-1.7637 1.6406-4.7988h2.9746v5.0449h6.459v3.6504h-6.459v12.1406c0 1.1621.2891 2.0195.8711 2.5742.5801.5529 1.3438.8302 2.2871.8302z"/><path d="m912.4248 631.0459c0-.8613.2363-1.5244.707-1.9893.4727-.4648 1.1465-.6973 2.0215-.6973.8477 0 1.5059.2324 1.9785.6973.4707.4648.707 1.1279.707 1.9893 0 .8203-.2363 1.4658-.707 1.9385-.4727.4707-1.1309.707-1.9785.707-.875 0-1.5488-.2363-2.0215-.707-.4707-.4727-.707-1.1182-.707-1.9385zm5.1074 28.6904h-4.8203v-22.6816h4.8203z"/><path d="m944.376 659.7363h-4.8398v-13.9453c0-1.75-.3516-3.0557-1.0547-3.917-.7051-.8613-1.8223-1.292-3.3535-1.292-2.0371 0-3.5273.6016-4.4707 1.8047s-1.416 3.2197-1.416 6.0498v11.2998h-4.8184v-22.6816h3.7734l.6758 2.9736h.2461c.6836-1.0801 1.6543-1.9141 2.9121-2.502s2.6523-.8818 4.1836-.8818c5.4414 0 8.1621 2.7686 8.1621 8.3057z"/><path d="m967.0791 659.7363-.6777-2.9736h-.2461c-.6699 1.0527-1.623 1.8799-2.8594 2.4814-1.2383.6016-2.6504.9023-4.2363.9023-2.748 0-4.7988-.6836-6.1523-2.0508s-2.0293-3.4385-2.0293-6.2139v-14.8271h4.8594v13.9863c0 1.7363.3555 3.0391 1.0664 3.9062.7109.8691 1.8262 1.3027 3.3438 1.3027 2.0234 0 3.5098-.6055 4.4609-1.8145.9492-1.2109 1.4238-3.2373 1.4238-6.0811v-11.2998h4.8398v22.6816h-3.793z"/><path d="m997.8604 648.3545c0 3.7051-.9492 6.5967-2.8496 8.6748s-4.5469 3.1172-7.9375 3.1172c-2.1191 0-3.9922-.4785-5.6191-1.4355s-2.877-2.3311-3.752-4.1221-1.3125-3.8691-1.3125-6.2344c0-3.6777.9434-6.5488 2.8301-8.6133s4.5449-3.0967 7.9766-3.0967c3.2812 0 5.8789 1.0566 7.793 3.168 1.9139 2.1133 2.871 4.96 2.871 8.542zm-16.5079 0c0 5.2363 1.9336 7.8545 5.8027 7.8545 3.8281 0 5.7422-2.6182 5.7422-7.8545 0-5.1816-1.9277-7.7725-5.7832-7.7725-2.0234 0-3.4902.6699-4.3984 2.0098-.9101 1.3398-1.3633 3.2607-1.3633 5.7627z"/><path d="m1019.3936 659.7363-.6758-2.9736h-.2461c-.6699 1.0527-1.625 1.8799-2.8613 2.4814-1.2383.6016-2.6484.9023-4.2344.9023-2.748 0-4.7988-.6836-6.1523-2.0508s-2.0312-3.4385-2.0312-6.2139v-14.8271h4.8613v13.9863c0 1.7363.3555 3.0391 1.0664 3.9062.7109.8691 1.8242 1.3027 3.3418 1.3027 2.0234 0 3.5098-.6055 4.4609-1.8145.9492-1.2109 1.4258-3.2373 1.4258-6.0811v-11.2998h4.8398v22.6816h-3.7949z"/><path d="m1045.2959 653.2764c0 2.2148-.8066 3.9141-2.4199 5.0967s-3.9238 1.7734-6.9316 1.7734c-3.0215 0-5.4492-.458-7.2812-1.374v-4.1631c2.666 1.2305 5.1484 1.8457 7.4453 1.8457 2.9668 0 4.4492-.8955 4.4492-2.6865 0-.5742-.1641-1.0527-.4922-1.4355s-.8672-.7793-1.6191-1.1895-1.7988-.875-3.1387-1.3945c-2.6113-1.0117-4.3789-2.0234-5.3008-3.0352-.9238-1.0117-1.3848-2.3242-1.3848-3.9375 0-1.9414.7832-3.4482 2.3477-4.5225 1.5664-1.0723 3.6953-1.6094 6.3887-1.6094 2.666 0 5.1895.54 7.5684 1.6201l-1.5586 3.6299c-2.4473-1.0117-4.5059-1.5176-6.1738-1.5176-2.543 0-3.8145.7246-3.8145 2.1738 0 .7109.332 1.3125.9941 1.8047.6641.4922 2.1094 1.1689 4.3379 2.0303 1.873.7246 3.2344 1.3877 4.082 1.9893s1.4766 1.2959 1.8867 2.082.6152 1.7256.6152 2.8194z"/><path d="m1055.3232 659.7363h-4.8184v-31.9102h4.8184z"/><path d="m1058.7686 637.0547h5.25l4.6152 12.8584c.6973 1.832 1.1621 3.5547 1.3945 5.168h.1641c.123-.752.3477-1.6641.6758-2.7373s2.0645-6.1699 5.209-15.2891h5.209l-9.6992 25.6963c-1.7637 4.7168-4.7031 7.0752-8.8184 7.0752-1.0664 0-2.1055-.1162-3.1172-.3486v-3.8145c.7246.1641 1.5508.2461 2.4805.2461 2.3242 0 3.959-1.3467 4.9023-4.04l.8398-2.1328z"/><path d="m87.2222 609.3359h-16.96v-29.9824h16.96v4.1426h-12.0586v8.1621h11.2998v4.1016h-11.2998v9.4131h12.0586z"/><path d="m98.2349 597.749-7.6084-11.0947h5.4961l5.168 7.9365 5.209-7.9365h5.4551l-7.6289 11.0947 8.0186 11.5869h-5.4551l-5.5986-8.4902-5.5781 8.4902h-5.4551z"/><path d="m127.8276 609.7461c-2.8711 0-5.0996-1.0322-6.6855-3.0967h-.2871c.1914 1.9141.2871 3.0762.2871 3.4863v9.29h-4.8193v-32.7715h3.8965c.1094.4238.335 1.4355.6768 3.0352h.2461c1.5039-2.2969 3.7598-3.4453 6.7676-3.4453 2.8301 0 5.0347 1.0254 6.6138 3.0762s2.3687 4.9287 2.3687 8.6338-.8032 6.5967-2.4097 8.6748-3.8249 3.1172-6.655 3.1172zm-1.1689-19.5645c-1.9141 0-3.312.5605-4.1938 1.6816s-1.3228 2.9121-1.3228 5.373v.7178c0 2.7617.4375 4.7617 1.3125 5.999s2.3037 1.8555 4.2861 1.8555c1.668 0 2.9531-.6836 3.8555-2.0508s1.3535-3.3154 1.3535-5.8447c0-2.543-.4478-4.4668-1.3433-5.7725s-2.2114-1.9589-3.9477-1.9589z"/><path d="m152.396 609.7461c-3.5273 0-6.2856-1.0283-8.2749-3.0859s-2.9839-4.8916-2.9839-8.501c0-3.7051.9229-6.6172 2.7686-8.7363s4.3818-3.1787 7.6084-3.1787c2.9941 0 5.3594.9092 7.0957 2.7275s2.6045 4.3203 2.6045 7.5059v2.6045h-15.1143c.0684 2.2012.6631 3.8936 1.7842 5.0762s2.7002 1.7734 4.7373 1.7734c1.3398 0 2.5874-.126 3.7427-.3789s2.396-.6738 3.7222-1.2617v3.917c-1.1758.5605-2.3652.957-3.5684 1.1895s-2.5772.3485-4.1221.3485zm-.8818-19.8516c-1.5312 0-2.7583.4854-3.6812 1.4561s-1.4731 2.3857-1.6509 4.2451h10.2949c-.0273-1.873-.4785-3.291-1.3535-4.2559-.875-.9628-2.0781-1.4453-3.6093-1.4453z"/><path d="m178.1948 586.2441c.9707 0 1.7705.0684 2.3994.2051l-.4717 4.4912c-.6836-.1641-1.3945-.2461-2.1328-.2461-1.9277 0-3.4897.6289-4.686 1.8867s-1.7944 2.8916-1.7944 4.9014v11.8535h-4.8193v-22.6816h3.7734l.6357 3.999h.2461c.752-1.3535 1.7329-2.4268 2.9429-3.2197s2.5122-1.1895 3.9067-1.1895z"/><path d="m184.5112 580.6455c0-.8613.2358-1.5244.7075-1.9893s1.145-.6973 2.02-.6973c.8477 0 1.5073.2324 1.979.6973s.7075 1.1279.7075 1.9893c0 .8203-.2358 1.4658-.7075 1.9385-.4717.4707-1.1313.707-1.979.707-.875 0-1.5483-.2363-2.02-.707-.4716-.4727-.7075-1.1182-.7075-1.9385zm5.1065 28.6904h-4.8193v-22.6816h4.8193z"/><path d="m215.6216 609.3359h-4.8398v-13.9863c0-1.7363-.3281-3.0312-.9844-3.8867-.6562-.8535-1.6816-1.2812-3.0762-1.2812-1.8594 0-3.2231.6055-4.0913 1.8145-.8682 1.2109-1.3022 3.2236-1.3022 6.04v11.2998h-4.8193v-22.6816h3.7734l.6768 2.9736h.2461c.6289-1.0801 1.5415-1.9141 2.7378-2.502s2.5122-.8818 3.9478-.8818c3.4863 0 5.7969 1.1895 6.9316 3.5684h.3281c.6699-1.1211 1.6133-1.9961 2.8301-2.625s2.6113-.9434 4.1836-.9434c2.707 0 4.6792.6836 5.9165 2.0508s1.856 3.4521 1.856 6.2549v14.7861h-4.8193v-13.9863c0-1.7363-.3315-3.0312-.9946-3.8867-.6631-.8535-1.6919-1.2812-3.0864-1.2812-1.873 0-3.2437.584-4.1118 1.7539-.8682 1.168-1.3022 2.9629-1.3022 5.3828v12.0174z"/><path d="m246.5679 609.7461c-3.5273 0-6.2856-1.0283-8.2749-3.0859s-2.9839-4.8916-2.9839-8.501c0-3.7051.9229-6.6172 2.7686-8.7363s4.3818-3.1787 7.6084-3.1787c2.9941 0 5.3594.9092 7.0957 2.7275s2.6045 4.3203 2.6045 7.5059v2.6045h-15.1143c.0684 2.2012.6631 3.8936 1.7842 5.0762s2.7002 1.7734 4.7373 1.7734c1.3398 0 2.5874-.126 3.7427-.3789s2.396-.6738 3.7222-1.2617v3.917c-1.1758.5605-2.3652.957-3.5684 1.1895s-2.5772.3485-4.1221.3485zm-.8819-19.8516c-1.5312 0-2.7583.4854-3.6812 1.4561s-1.4731 2.3857-1.6509 4.2451h10.2949c-.0273-1.873-.4785-3.291-1.3535-4.2559-.8749-.9628-2.078-1.4453-3.6093-1.4453z"/><path d="m280.8159 609.3359h-4.8398v-13.9453c0-1.75-.3521-3.0557-1.0562-3.917s-1.8218-1.292-3.353-1.292c-2.0371 0-3.5273.6016-4.4707 1.8047s-1.415 3.2197-1.415 6.0498v11.2998h-4.8193v-22.6816h3.7734l.6768 2.9736h.2461c.6836-1.0801 1.6543-1.9141 2.9121-2.502s2.6523-.8818 4.1836-.8818c5.4414 0 8.1621 2.7686 8.1621 8.3057v14.7861z"/><path d="m295.9712 605.8496c1.1758 0 2.3516-.1846 3.5273-.5537v3.6299c-.5332.2324-1.2202.4268-2.061.584s-1.7124.2363-2.6147.2363c-4.5664 0-6.8496-2.4062-6.8496-7.2188v-12.2227h-3.0967v-2.1328l3.3223-1.7637 1.6406-4.7988h2.9736v5.0449h6.46v3.6504h-6.46v12.1406c0 1.1621.2905 2.0195.8716 2.5742.581.5529 1.3432.8302 2.2866.8302z"/><path d="m313.4644 601.3994c0-1.791.4375-3.3525 1.3125-4.6865.875-1.332 2.4541-2.6553 4.7373-3.9678-1.2988-1.5176-2.1841-2.7998-2.6558-3.8447-.4717-1.0469-.7075-2.1299-.7075-3.251 0-2.0781.7417-3.7188 2.2251-4.9219s3.4761-1.8047 5.978-1.8047c2.4199 0 4.3203.585 5.7012 1.7529 1.3809 1.1699 2.0713 2.7451 2.0713 4.7275 0 1.5586-.4614 2.9736-1.3843 4.2451s-2.4644 2.543-4.6245 3.8145l7.0957 6.8496c1.1074-1.4629 2.0303-3.6094 2.7686-6.4395h4.9629c-.957 3.8828-2.4883 7.0479-4.5938 9.4951l6.1729 5.9678h-6.2139l-3.0557-2.9736c-1.3945 1.1211-2.8813 1.9658-4.4604 2.5322-1.5791.5674-3.3257.8516-5.2397.8516-3.1445 0-5.6123-.7451-7.4033-2.2354s-2.6866-3.5272-2.6866-6.1112zm10.3359 4.2041c2.502 0 4.6416-.7314 6.4189-2.1943l-7.8545-7.7314c-1.4492.9297-2.4473 1.8018-2.9941 2.6152s-.8203 1.7393-.8203 2.7783c0 1.3398.4751 2.4307 1.4253 3.2705.9502.8418 2.2251 1.2617 3.8247 1.2617zm-3.0557-19.79c0 .8613.229 1.6748.687 2.4404s1.0972 1.5791 1.9175 2.4404c1.5449-.875 2.6284-1.6924 3.2505-2.4502.6221-.7598.9331-1.6104.9331-2.5537 0-.8887-.2974-1.5996-.8921-2.1328s-1.3843-.7998-2.3687-.7998c-1.0801 0-1.938.2773-2.5737.8301-.6357.5547-.9536 1.2959-.9536 2.2256z"/><path d="m70.1597 659.7363v-29.9824h4.9014v25.7783h12.6943v4.2041z"/><path d="m102.3159 660.1465c-3.5273 0-6.2856-1.0283-8.2749-3.0859s-2.9839-4.8916-2.9839-8.501c0-3.7051.9229-6.6172 2.7686-8.7363s4.3818-3.1787 7.6084-3.1787c2.9941 0 5.3594.9092 7.0957 2.7275s2.6045 4.3203 2.6045 7.5059v2.6045h-15.1143c.0684 2.2012.6631 3.8936 1.7842 5.0762s2.7002 1.7734 4.7373 1.7734c1.3398 0 2.5874-.126 3.7427-.3789s2.396-.6738 3.7222-1.2617v3.917c-1.1758.5605-2.3652.957-3.5684 1.1895s-2.5772.3485-4.1221.3485zm-.8818-19.8516c-1.5312 0-2.7583.4854-3.6812 1.4561s-1.4731 2.3857-1.6509 4.2451h10.2949c-.0273-1.873-.4785-3.291-1.3535-4.2559-.8749-.9629-2.0781-1.4453-3.6093-1.4453z"/><path d="m130.8013 659.7363-.9639-3.1582h-.1641c-1.0938 1.3809-2.1943 2.3213-3.3018 2.8203-1.1074.498-2.5293.748-4.2656.748-2.2285 0-3.9683-.6016-5.2192-1.8047s-1.8765-2.9053-1.8765-5.1064c0-2.3379.8682-4.1016 2.6045-5.291s4.3818-1.8389 7.9365-1.9482l3.917-.123v-1.21c0-1.4492-.3384-2.5322-1.0151-3.251-.6768-.7168-1.7261-1.0762-3.1479-1.0762-1.1621 0-2.2764.1709-3.3428.5127s-2.0918.7451-3.0762 1.21l-1.5586-3.4453c1.2305-.6426 2.5771-1.1309 4.04-1.4668 1.4629-.334 2.8438-.502 4.1426-.502 2.8848 0 5.062.6289 6.5317 1.8867s2.2046 3.2334 2.2046 5.9268v15.2783zm-7.1778-3.2812c1.75 0 3.1548-.4883 4.2144-1.4668 1.0596-.9766 1.5894-2.3477 1.5894-4.1113v-1.9688l-2.9121.123c-2.2695.082-3.9204.4609-4.9526 1.1387-1.0322.6758-1.5483 1.7119-1.5483 3.1064 0 1.0117.3008 1.7939.9023 2.3486.6015.5528 1.5038.8302 2.7069.8302z"/><path d="m152.478 636.6445c.9707 0 1.7705.0684 2.3994.2051l-.4717 4.4912c-.6836-.1641-1.3945-.2461-2.1328-.2461-1.9277 0-3.4897.6289-4.686 1.8867s-1.7944 2.8916-1.7944 4.9014v11.8535h-4.8193v-22.6816h3.7734l.6357 3.999h.2461c.752-1.3535 1.7329-2.4268 2.9429-3.2197s2.5122-1.1895 3.9067-1.1895z"/><path d="m179.0356 659.7363h-4.8398v-13.9453c0-1.75-.3521-3.0557-1.0562-3.917s-1.8218-1.292-3.353-1.292c-2.0371 0-3.5273.6016-4.4707 1.8047s-1.415 3.2197-1.415 6.0498v11.2998h-4.8193v-22.6816h3.7734l.6768 2.9736h.2461c.6836-1.0801 1.6543-1.9141 2.9121-2.502s2.6523-.8818 4.1836-.8818c5.4414 0 8.1621 2.7686 8.1621 8.3057v14.7861z"/><path d="m202.0659 647.7598v11.9766h-4.9014v-29.9824h8.4697c3.8691 0 6.7334.7246 8.5928 2.1738s2.7891 3.6367 2.7891 6.5625c0 3.7324-1.9414 6.3916-5.8242 7.9775l8.4697 13.2686h-5.5781l-7.1777-11.9766zm0-4.0606h3.4043c2.2832 0 3.9375-.4238 4.9629-1.2715s1.5381-2.1055 1.5381-3.7734c0-1.6953-.5537-2.9121-1.6611-3.6504s-2.7754-1.1074-5.0039-1.1074h-3.2402v9.8027z"/><path d="m237.688 659.7363-.9639-3.1582h-.1641c-1.0938 1.3809-2.1943 2.3213-3.3018 2.8203-1.1074.498-2.5293.748-4.2656.748-2.2285 0-3.9683-.6016-5.2192-1.8047s-1.8765-2.9053-1.8765-5.1064c0-2.3379.8682-4.1016 2.6045-5.291s4.3818-1.8389 7.9365-1.9482l3.917-.123v-1.21c0-1.4492-.3384-2.5322-1.0151-3.251-.6768-.7168-1.7261-1.0762-3.1479-1.0762-1.1621 0-2.2764.1709-3.3428.5127s-2.0918.7451-3.0762 1.21l-1.5586-3.4453c1.2305-.6426 2.5771-1.1309 4.04-1.4668 1.4629-.334 2.8438-.502 4.1426-.502 2.8848 0 5.062.6289 6.5317 1.8867s2.2046 3.2334 2.2046 5.9268v15.2783zm-7.1777-3.2812c1.75 0 3.1548-.4883 4.2144-1.4668 1.0596-.9766 1.5894-2.3477 1.5894-4.1113v-1.9688l-2.9121.123c-2.2695.082-3.9204.4609-4.9526 1.1387-1.0322.6758-1.5483 1.7119-1.5483 3.1064 0 1.0117.3008 1.7939.9023 2.3486.6014.5528 1.5037.8302 2.7069.8302z"/><path d="m259.3647 660.1465c-2.8711 0-5.0996-1.0322-6.6855-3.0967h-.2871c.1914 1.9141.2871 3.0762.2871 3.4863v9.29h-4.8193v-32.7715h3.8965c.1094.4238.335 1.4355.6768 3.0352h.2461c1.5039-2.2969 3.7598-3.4453 6.7676-3.4453 2.8301 0 5.0347 1.0254 6.6138 3.0762s2.3687 4.9287 2.3687 8.6338-.8032 6.5967-2.4097 8.6748-3.8249 3.1172-6.655 3.1172zm-1.1689-19.5645c-1.9141 0-3.312.5605-4.1938 1.6816s-1.3228 2.9121-1.3228 5.373v.7178c0 2.7617.4375 4.7617 1.3125 5.999s2.3037 1.8555 4.2861 1.8555c1.668 0 2.9531-.6836 3.8555-2.0508s1.3535-3.3154 1.3535-5.8447c0-2.543-.4478-4.4668-1.3433-5.7725s-2.2114-1.9589-3.9477-1.9589z"/><path d="m273.7407 631.0459c0-.8613.2358-1.5244.7075-1.9893s1.145-.6973 2.02-.6973c.8477 0 1.5073.2324 1.979.6973s.7075 1.1279.7075 1.9893c0 .8203-.2358 1.4658-.7075 1.9385-.4717.4707-1.1313.707-1.979.707-.875 0-1.5483-.2363-2.02-.707-.4716-.4727-.7075-1.1182-.7075-1.9385zm5.1065 28.6904h-4.8193v-22.6816h4.8193z"/><path d="m293.3872 660.1465c-2.8301 0-5.0381-1.0254-6.624-3.0762s-2.3789-4.9287-2.3789-8.6338c0-3.7188.8032-6.6143 2.4097-8.6846 1.6064-2.0723 3.8315-3.1074 6.6753-3.1074 2.9805 0 5.25 1.1006 6.8086 3.3018h.2461c-.2324-1.627-.3486-2.9121-.3486-3.8555v-8.2646h4.8398v31.9102h-3.7734l-.8408-2.9736h-.2256c-1.545 2.2558-3.8077 3.3837-6.7882 3.3837zm1.292-3.8965c1.9824 0 3.4248-.5566 4.3271-1.6719.9023-1.1133 1.3672-2.9219 1.3945-5.4238v-.6768c0-2.8574-.4648-4.8877-1.3945-6.0908s-2.3857-1.8047-4.3682-1.8047c-1.6953 0-3.001.6875-3.917 2.0605-.916 1.375-1.374 3.333-1.374 5.876 0 2.5156.4443 4.4336 1.333 5.7529s2.2218 1.9786 3.9991 1.9786z"/><path d="m316.7251 659.7363h-4.8193v-31.9102h4.8193z"/><path d="m320.1704 637.0547h5.25l4.6143 12.8584c.6973 1.832 1.1621 3.5547 1.3945 5.168h.1641c.123-.752.3486-1.6641.6768-2.7373s2.0645-6.1699 5.209-15.2891h5.209l-9.7002 25.6963c-1.7637 4.7168-4.7031 7.0752-8.8184 7.0752-1.0664 0-2.1055-.1162-3.1172-.3486v-3.8145c.7246.1641 1.5518.2461 2.4814.2461 2.3242 0 3.958-1.3467 4.9014-4.04l.8408-2.1328z"/><path d="m601.2812 88.3311c-9.9111 0-22.7549 5.8418-25.2822 15.6758l-.002-.002v.002c-2.5273-9.834-15.3711-15.6758-25.2803-15.6758-19.543 0-35.3936 15.1689-35.3936 35.3936 0 23.7969 14.0713 38.3584 29.4102 50.1758 9.2012 7.0898 29.6221 23.1357 31.2383 23.1357.0098 0 .0176-.002.0254-.002s.0176.002.0254.002c1.6172 0 22.0391-16.0459 31.2402-23.1357 15.3379-11.8174 29.4121-26.3789 29.4121-50.1758.0001-20.2247-15.8505-35.3936-35.3935-35.3936zm-64.2929 16.0087c-6.1104 4.5195-9.6162 11.585-9.6162 19.3848 0 1.2871-1.041 2.3301-2.3281 2.3301s-2.3301-1.043-2.3301-2.3301c0-9.293 4.1924-17.7227 11.5039-23.1299 1.0332-.7656 2.4902-.5469 3.2568.4873.7656 1.0342.5459 2.4942-.4863 3.2578z"/><path clip-rule="evenodd" d="m244.1167 518.4824c0 14.9453-8.2681 27.9512-20.4751 34.7139 0 0-1.4834.8496-3.417 1.1836-1.8804.3242-3.2686.3857-3.2686.3857h-12.5103-12.5083s-1.3901-.0615-3.271-.3857c-1.9331-.334-3.4165-1.1836-3.4165-1.1836-12.207-6.7627-20.4751-19.7686-20.4751-34.7139 0-16.502 10.0776-30.6465 24.4126-36.625v-22.5342c-1.9492 0-3.5293-1.5801-3.5293-3.5273v-6.207c0-1.9492 1.5801-3.5283 3.5293-3.5283h30.5166c1.9492 0 3.5298 1.5791 3.5298 3.5283v6.207c0 1.9473-1.5806 3.5273-3.5298 3.5273v22.5342c14.3351 5.9785 24.4127 20.1231 24.4127 36.625zm-29.4624-70.0244h-20.4155c-1.2866 0-2.3296 1.0439-2.3296 2.3301 0 1.2871 1.043 2.3291 2.3296 2.3291h20.4155c1.2866 0 2.3306-1.042 2.3306-2.3291 0-1.2861-1.044-2.3301-2.3306-2.3301zm2.2549 40.1025c-2.7051-1.1279-4.4683-3.7725-4.4683-6.7031v-22.5342h-15.9902v22.5342c0 2.9307-1.7622 5.5752-4.4678 6.7031-12.1147 5.0537-19.9453 16.7998-19.9453 29.9219 0 11.7744 6.4092 22.6406 16.7266 28.3584.1572.0791.6587.2988 1.1396.3828 1.0723.1846 1.9355.2559 2.2476.2783h12.2944 12.2974c.2939-.0205 1.1636-.0918 2.2471-.2793.481-.083.979-.3027 1.1372-.3818 10.3169-5.7178 16.7266-16.584 16.7266-28.3584-.0001-13.122-7.8287-24.8681-19.9449-29.9219zm15.2856 29.9219c0 10.0059-5.4043 19.2441-14.124 24.1709-.6709.1104-1.2261.167-1.5117.1895h-24.2319c-.2642-.0215-.8242-.0771-1.5029-.1895-8.7207-4.9258-14.1289-14.165-14.1289-24.1709 0-3.5225.6699-6.8936 1.873-9.998h51.7563c1.2036 3.1045 1.8701 6.4756 1.8701 9.998zm-36.1841 15.7842c-5.9766-3.7871-9.6782-10.4834-9.6782-17.5488 0-1.2871-1.0425-2.3291-2.3296-2.3291-1.2856 0-2.3301 1.042-2.3301 2.3291 0 8.7676 4.6533 17.0723 12.1426 21.6699l.4751.2764.6968.0752c.0674.0059.1348.0088.2026.0088 1.1914 0 2.1646-.9199 2.2695-2.1318.0894-1.0304-.5356-1.964-1.4487-2.3497z" fill-rule="evenodd"/><path d="m618.3379 831.3232h-84.6797c-1.9414 0-3.5186 1.5752-3.5186 3.5166l.0039 32.6309c0 .0029.002.0078.002.0117v22.917c0 7.2842 2.458 17.7812 11.8701 28.3242 13.4854 15.1035 33.9863 21.3076 33.9863 21.3076s20.501-6.2041 33.9863-21.3076c9.4121-10.543 11.8701-21.04 11.8701-28.3242 0-3.2861 0-13.1162 0-22.917 0-.0039.002-.0088.002-.0117l-.0049-32.6309c.0001-1.9414-1.5761-3.5166-3.5175-3.5166zm-67.0889 83.043c-.4443.3955-.999.5898-1.5498.5898-.6416 0-1.2793-.2627-1.7393-.7783-9.2373-10.3447-10.6162-20.126-10.6162-25.0361 0-1.2861 1.042-2.3301 2.3281-2.3301 1.2871 0 2.3311 1.0439 2.3311 2.3301 0 4.2461 1.2246 12.7412 9.4326 21.9346.8565.959.7715 2.4316-.1865 3.29zm63.3477-47.0098c-.001.041-.001.084-.001.126v22.917c0 4.5781-1.3037 13.7168-10.0244 23.4863-9.5215 10.665-23.334 16.5176-28.5693 18.4619l-.0039-93.7617h38.5947z"/><path clip-rule="evenodd" d="m1011.5254 487.6035c-.1602 0-.3301-.0117-.5098-.0381l-6.7881-.9492-.001 49.5664c0 1.9404-1.5312 3.9492-3.4014 4.4658l-49.8701 13.7334c-.9346.2568-2.1689.3877-3.4014.3877-1.2344 0-2.4658-.1309-3.4023-.3877l-49.8672-13.7334c-1.873-.5166-3.4023-2.5254-3.4023-4.4658l.001-49.5664-6.791.9492c-.1787.0264-.3477.0381-.5078.0381-1.5664 0-2.2471-1.1543-1.5117-2.7529l9.543-20.7812c.8105-1.7627 3.002-3.6299 4.875-4.1445l49.8682-13.7363c.3125-.0859.6025-.1279.8672-.1279.1182 0 .2236.0176.3291.0342.1064-.0166.2109-.0342.3281-.0342.2656 0 .5557.042.8672.1279l49.8691 13.7363c1.8721.5146 4.0654 2.3818 4.876 4.1445l9.543 20.7812c.7352 1.5986.0546 2.7529-1.5128 2.7529zm-113.0772 42.9248c0 1.2861 1.043 2.3281 2.3291 2.3281 1.2871 0 2.3291-1.042 2.3291-2.3281v-22.2285c0-1.2871-1.042-2.3291-2.3291-2.3291-1.2861 0-2.3291 1.042-2.3291 2.3291zm-.7226-66.1123c-.5508.1533-1.6387 1.0801-1.8779 1.5977l-7.4609 16.2461 46.6182-6.5381c.2393-.0791.6523-.4346.7666-.6572l7.0557-23.0732zm50.2217 14.1709-.3926-1.2852v68.8408c.8145 0 1.3506-.0938 1.4736-.126l47.9365-13.2021v-39.8848l-38.5527-5.4092c-4.6777-.6552-9.0801-4.413-10.4648-8.9335zm51.3144-12.5732c-.2393-.5176-1.3281-1.4443-1.8789-1.5977l-45.1016-12.4248 7.0566 23.0732c.1133.2227.5273.5781.7666.6572l46.6172 6.5381z" fill-rule="evenodd"/></g></svg>